<svg width="818" height="475" viewBox="0 0 818 475" fill="none" xmlns="http://www.w3.org/2000/svg">
<path d="M105.324 262.499C85.556 262.499 68.4611 259.339 54.0399 253.02C39.6187 246.7 28.1951 237.869 19.7693 226.527C11.5054 215.184 6.48228 201.978 4.69988 186.909L4.45683 184.721H46.7483L47.2344 187.152C49.827 199.791 55.9033 209.675 65.4635 216.805C75.0236 223.772 88.3916 227.256 105.567 227.256C117.072 227.256 126.875 225.798 134.977 222.881C143.079 219.802 149.317 215.508 153.692 209.999C158.067 204.328 160.255 197.684 160.255 190.069V189.825C160.255 180.751 157.5 173.46 151.991 167.951C146.482 162.441 136.516 157.904 122.095 154.34L81.9912 144.617C66.1116 140.728 52.9057 135.705 42.3733 129.548C32.003 123.229 24.2253 115.532 19.0401 106.458C13.8549 97.3838 11.2623 86.7704 11.2623 74.6177V74.3746C11.2623 59.7914 15.1512 46.9095 22.929 35.729C30.8687 24.5485 41.8062 15.7985 55.7413 9.47912C69.8385 3.15971 85.9611 0 104.109 0C122.581 0 138.623 3.32174 152.234 9.96523C166.007 16.4467 176.782 25.3587 184.56 36.7012C192.5 47.8817 196.956 60.5205 197.928 74.6177L198.171 77.7774H157.824L157.581 76.076C155.961 63.7613 150.533 53.8771 141.296 46.4234C132.222 38.9697 119.827 35.2429 104.109 35.2429C93.9008 35.2429 85.0699 36.7822 77.6162 39.8609C70.1625 42.9396 64.4102 47.3146 60.3593 52.9859C56.4705 58.4951 54.526 64.9765 54.526 72.4302V72.6733C54.526 78.3445 55.8223 83.5297 58.4149 88.2287C61.1695 92.7658 65.4635 96.7357 71.2968 100.138C77.1301 103.541 84.6648 106.377 93.9008 108.645L134.005 118.367C159.607 124.525 177.593 133.032 187.963 143.888C198.333 154.583 203.518 168.923 203.518 186.909V187.152C203.518 201.897 199.224 214.941 190.636 226.284C182.211 237.626 170.544 246.538 155.637 253.02C140.891 259.339 124.121 262.499 105.324 262.499Z" fill="white"/>
<path d="M332.357 262.499C309.023 262.499 288.526 257.152 270.864 246.457C253.364 235.763 239.672 220.612 229.788 201.006C220.066 181.238 215.204 157.985 215.204 131.249V130.763C215.204 103.865 220.066 80.6941 229.788 61.2497C239.672 41.6433 253.364 26.5739 270.864 16.0416C288.526 5.3472 308.942 0 332.114 0C355.447 0 375.863 5.3472 393.363 16.0416C411.025 26.5739 424.717 41.6433 434.439 61.2497C444.324 80.6941 449.266 103.865 449.266 130.763V131.249C449.266 158.147 444.324 181.4 434.439 201.006C424.717 220.612 411.106 235.763 393.606 246.457C376.106 257.152 355.69 262.499 332.357 262.499ZM332.6 225.068C347.507 225.068 360.389 221.423 371.245 214.131C382.264 206.677 390.771 195.983 396.766 182.048C402.923 167.951 406.002 151.018 406.002 131.249V130.763C406.002 110.995 402.923 94.1431 396.766 80.2079C390.771 66.2728 382.183 55.6595 371.002 48.3678C359.984 41.0762 347.021 37.4304 332.114 37.4304C317.53 37.4304 304.648 41.1572 293.468 48.6109C282.449 55.9025 273.862 66.5159 267.704 80.451C261.547 94.2241 258.468 110.995 258.468 130.763V131.249C258.468 151.018 261.547 167.951 267.704 182.048C273.862 195.983 282.449 206.677 293.468 214.131C304.648 221.423 317.692 225.068 332.6 225.068Z" fill="white"/>
<path d="M472.132 257.638V4.86109H514.424V47.6387H515.396C519.609 33.0554 526.901 21.4698 537.271 12.8819C547.641 4.29396 559.956 0 574.215 0C577.942 0 581.264 0.243054 584.18 0.729163C587.259 1.05324 589.609 1.37731 591.229 1.70138V42.7776C589.609 42.1294 586.692 41.5623 582.479 41.0762C578.428 40.5901 573.81 40.347 568.625 40.347C557.769 40.347 548.208 42.7776 539.945 47.6387C531.843 52.4997 525.523 59.5483 520.986 68.7844C516.611 77.8584 514.424 88.7959 514.424 101.597V257.638H472.132Z" fill="white"/>
<path d="M698.435 262.499C675.102 262.499 654.605 257.152 636.943 246.457C619.443 235.763 605.751 220.612 595.867 201.006C586.144 181.238 581.283 157.985 581.283 131.249V130.763C581.283 103.865 586.144 80.6941 595.867 61.2497C605.751 41.6433 619.443 26.5739 636.943 16.0416C654.605 5.3472 675.021 0 698.192 0C721.526 0 741.942 5.3472 759.442 16.0416C777.104 26.5739 790.796 41.6433 800.518 61.2497C810.403 80.6941 815.345 103.865 815.345 130.763V131.249C815.345 158.147 810.403 181.4 800.518 201.006C790.796 220.612 777.185 235.763 759.685 246.457C742.185 257.152 721.769 262.499 698.435 262.499ZM698.679 225.068C713.586 225.068 726.468 221.423 737.324 214.131C748.343 206.677 756.85 195.983 762.845 182.048C769.002 167.951 772.081 151.018 772.081 131.249V130.763C772.081 110.995 769.002 94.1431 762.845 80.2079C756.85 66.2728 748.262 55.6595 737.081 48.3678C726.063 41.0762 713.1 37.4304 698.192 37.4304C683.609 37.4304 670.727 41.1572 659.547 48.6109C648.528 55.9025 639.94 66.5159 633.783 80.451C627.626 94.2241 624.547 110.995 624.547 130.763V131.249C624.547 151.018 627.626 167.951 633.783 182.048C639.94 195.983 648.528 206.677 659.547 214.131C670.727 221.423 683.771 225.068 698.679 225.068Z" fill="white"/>
<path d="M73.2619 474.22C58.9037 474.22 46.4874 471.925 36.0131 467.335C25.5387 462.745 17.2415 456.331 11.1217 448.092C5.1195 439.854 1.47112 430.262 0.176535 419.317L0 417.729H30.717L31.0701 419.494C32.9531 428.674 37.3665 435.853 44.3102 441.031C51.2539 446.092 60.9633 448.622 73.4384 448.622C81.7944 448.622 88.9146 447.563 94.7991 445.444C100.684 443.208 105.215 440.09 108.392 436.088C111.57 431.969 113.159 427.144 113.159 421.612V421.436C113.159 414.845 111.158 409.549 107.157 405.548C103.155 401.546 95.9171 398.251 85.4427 395.662L56.3145 388.6C44.7809 385.776 35.1892 382.127 27.5394 377.655C20.0073 373.065 14.3581 367.475 10.5921 360.884C6.826 354.294 4.94297 346.585 4.94297 337.758V337.582C4.94297 326.99 7.76752 317.633 13.4166 309.513C19.1834 301.392 27.1275 295.037 37.2488 290.447C47.4878 285.857 59.1979 283.562 72.3792 283.562C85.7958 283.562 97.4471 285.975 107.333 290.8C117.337 295.508 125.163 301.981 130.812 310.219C136.579 318.34 139.815 327.519 140.522 337.758L140.698 340.053H111.393L111.217 338.818C110.04 329.873 106.097 322.694 99.389 317.28C92.7984 311.867 83.7951 309.16 72.3792 309.16C64.9647 309.16 58.5506 310.278 53.1369 312.514C47.7232 314.75 43.5452 317.928 40.603 322.047C37.7784 326.048 36.3661 330.756 36.3661 336.17V336.346C36.3661 340.465 37.3076 344.231 39.1907 347.644C41.1914 350.94 44.3102 353.823 48.547 356.294C52.7838 358.766 58.2564 360.826 64.9647 362.473L94.0929 369.535C112.688 374.007 125.751 380.186 133.284 388.071C140.816 395.838 144.582 406.254 144.582 419.317V419.494C144.582 430.204 141.463 439.678 135.225 447.916C129.106 456.154 120.632 462.627 109.805 467.335C99.0948 471.925 86.9139 474.22 73.2619 474.22Z" fill="white"/>
<path d="M237.63 474.22C220.094 474.22 204.971 470.336 192.26 462.568C179.667 454.801 169.958 443.856 163.132 429.733C156.424 415.492 153.07 398.781 153.07 379.597V379.421C153.07 360.472 156.483 343.819 163.309 329.461C170.135 314.985 179.726 303.746 192.084 295.743C204.441 287.623 218.976 283.562 235.688 283.562C252.4 283.562 266.758 287.446 278.762 295.214C290.884 302.863 300.182 313.632 306.655 327.519C313.128 341.407 316.364 357.53 316.364 375.89V387.188H168.428V363.179H301.182L285.647 385.423V373.595C285.647 359.354 283.47 347.585 279.115 338.288C274.878 328.99 268.994 322.106 261.462 317.633C253.93 313.044 245.28 310.749 235.511 310.749C225.743 310.749 216.975 313.161 209.208 317.987C201.44 322.694 195.32 329.755 190.848 339.171C186.376 348.468 184.14 359.943 184.14 373.595V385.423C184.14 398.369 186.317 409.431 190.671 418.611C195.144 427.791 201.44 434.852 209.561 439.795C217.681 444.621 227.273 447.033 238.336 447.033C246.103 447.033 253.047 445.856 259.167 443.503C265.287 441.149 270.406 437.912 274.525 433.793C278.645 429.674 281.587 424.966 283.352 419.67L283.882 418.082H314.069L313.716 419.847C312.186 427.379 309.244 434.44 304.889 441.031C300.653 447.622 295.18 453.447 288.472 458.508C281.763 463.451 274.114 467.335 265.522 470.159C256.931 472.866 247.633 474.22 237.63 474.22Z" fill="white"/>
<path d="M332.973 470.689V287.093H363.69V313.22H364.396C369.339 304.629 376.518 297.567 385.933 292.036C395.348 286.387 406.999 283.562 420.887 283.562C441.012 283.562 456.606 289.682 467.668 301.922C478.849 314.044 484.439 330.579 484.439 351.528V470.689H453.722V357.001C453.722 342.054 450.191 330.638 443.13 322.753C436.186 314.75 425.653 310.749 411.53 310.749C401.88 310.749 393.465 312.926 386.286 317.28C379.107 321.517 373.517 327.519 369.515 335.287C365.631 343.054 363.69 352.175 363.69 362.65V470.689H332.973Z" fill="white"/>
<path d="M574.309 474.22C559.951 474.22 547.535 471.925 537.061 467.335C526.586 462.745 518.289 456.331 512.169 448.092C506.167 439.854 502.519 430.262 501.224 419.317L501.048 417.729H531.765L532.118 419.494C534.001 428.674 538.414 435.853 545.358 441.031C552.301 446.092 562.011 448.622 574.486 448.622C582.842 448.622 589.962 447.563 595.847 445.444C601.731 443.208 606.262 440.09 609.44 436.088C612.617 431.969 614.206 427.144 614.206 421.612V421.436C614.206 414.845 612.205 409.549 608.204 405.548C604.203 401.546 596.965 398.251 586.49 395.662L557.362 388.6C545.828 385.776 536.237 382.127 528.587 377.655C521.055 373.065 515.406 367.475 511.64 360.884C507.874 354.294 505.991 346.585 505.991 337.758V337.582C505.991 326.99 508.815 317.633 514.464 309.513C520.231 301.392 528.175 295.037 538.296 290.447C548.535 285.857 560.246 283.562 573.427 283.562C586.843 283.562 598.495 285.975 608.381 290.8C618.384 295.508 626.211 301.981 631.86 310.219C637.626 318.34 640.863 327.519 641.569 337.758L641.746 340.053H612.441L612.264 338.818C611.087 329.873 607.145 322.694 600.437 317.28C593.846 311.867 584.843 309.16 573.427 309.16C566.012 309.16 559.598 310.278 554.184 312.514C548.771 314.75 544.593 317.928 541.651 322.047C538.826 326.048 537.414 330.756 537.414 336.17V336.346C537.414 340.465 538.355 344.231 540.238 347.644C542.239 350.94 545.358 353.823 549.595 356.294C553.831 358.766 559.304 360.826 566.012 362.473L595.141 369.535C613.735 374.007 626.799 380.186 634.331 388.071C641.863 395.838 645.629 406.254 645.629 419.317V419.494C645.629 430.204 642.511 439.678 636.273 447.916C630.153 456.154 621.68 462.627 610.852 467.335C600.142 471.925 587.961 474.22 574.309 474.22Z" fill="white"/>
<path d="M738.677 474.22C721.141 474.22 706.018 470.336 693.308 462.568C680.715 454.801 671.006 443.856 664.18 429.733C657.471 415.492 654.117 398.781 654.117 379.597V379.421C654.117 360.472 657.53 343.819 664.356 329.461C671.182 314.985 680.774 303.746 693.131 295.743C705.489 287.623 720.023 283.562 736.735 283.562C753.447 283.562 767.805 287.446 779.81 295.214C791.932 302.863 801.229 313.632 807.702 327.519C814.175 341.407 817.412 357.53 817.412 375.89V387.188H669.476V363.179H802.23L786.695 385.423V373.595C786.695 359.354 784.517 347.585 780.163 338.288C775.926 328.99 770.042 322.106 762.509 317.633C754.977 313.044 746.327 310.749 736.559 310.749C726.791 310.749 718.023 313.161 710.255 317.987C702.488 322.694 696.368 329.755 691.896 339.171C687.423 348.468 685.187 359.943 685.187 373.595V385.423C685.187 398.369 687.364 409.431 691.719 418.611C696.191 427.791 702.488 434.852 710.608 439.795C718.729 444.621 728.321 447.033 739.383 447.033C747.151 447.033 754.095 445.856 760.214 443.503C766.334 441.149 771.454 437.912 775.573 433.793C779.692 429.674 782.634 424.966 784.4 419.67L784.929 418.082H815.117L814.764 419.847C813.234 427.379 810.291 434.44 805.937 441.031C801.7 447.622 796.227 453.447 789.519 458.508C782.811 463.451 775.161 467.335 766.57 470.159C757.978 472.866 748.681 474.22 738.677 474.22Z" fill="white"/>
</svg>
