<svg width="1402" height="696" viewBox="0 0 1402 696" fill="none" xmlns="http://www.w3.org/2000/svg">
<path d="M100.868 262.499C81.0991 262.499 64.0043 259.339 49.5831 253.02C35.1619 246.7 23.7383 237.869 15.3124 226.527C7.04858 215.184 2.02545 201.978 0.243054 186.909L0 184.721H42.2915L42.7776 187.152C45.3702 199.791 51.4465 209.675 61.0067 216.805C70.5668 223.772 83.9348 227.256 101.111 227.256C112.615 227.256 122.418 225.798 130.52 222.881C138.622 219.802 144.86 215.508 149.235 209.999C153.61 204.328 155.798 197.684 155.798 190.069V189.825C155.798 180.751 153.043 173.46 147.534 167.951C142.025 162.441 132.06 157.904 117.638 154.34L77.5343 144.617C61.6548 140.728 48.4488 135.705 37.9165 129.548C27.5462 123.229 19.7684 115.532 14.5833 106.458C9.3981 97.3838 6.80552 86.7704 6.80552 74.6177V74.3746C6.80552 59.7914 10.6944 46.9095 18.4721 35.729C26.4119 24.5485 37.3494 15.7985 51.2845 9.47912C65.3816 3.15971 81.5042 0 99.6523 0C118.124 0 134.166 3.32174 147.777 9.96523C161.55 16.4467 172.326 25.3587 180.103 36.7012C188.043 47.8817 192.499 60.5205 193.471 74.6177L193.714 77.7774H153.367L153.124 76.076C151.504 63.7613 146.076 53.8771 136.84 46.4234C127.766 38.9697 115.37 35.2429 99.6523 35.2429C89.444 35.2429 80.613 36.7822 73.1594 39.8609C65.7057 42.9396 59.9534 47.3146 55.9025 52.9859C52.0136 58.4951 50.0692 64.9765 50.0692 72.4302V72.6733C50.0692 78.3445 51.3655 83.5297 53.9581 88.2287C56.7127 92.7658 61.0067 96.7357 66.84 100.138C72.6733 103.541 80.2079 106.377 89.444 108.645L129.548 118.367C155.15 124.525 173.136 133.032 183.506 143.888C193.876 154.583 199.062 168.923 199.062 186.909V187.152C199.062 201.897 194.768 214.941 186.18 226.284C177.754 237.626 166.087 246.538 151.18 253.02C136.435 259.339 119.664 262.499 100.868 262.499Z" fill="white"/>
<path d="M327.9 262.499C304.567 262.499 284.069 257.152 266.407 246.457C248.907 235.763 235.215 220.612 225.331 201.006C215.609 181.238 210.748 157.985 210.748 131.249V130.763C210.748 103.865 215.609 80.6941 225.331 61.2497C235.215 41.6433 248.907 26.5739 266.407 16.0416C284.069 5.3472 304.486 0 327.657 0C350.99 0 371.407 5.3472 388.906 16.0416C406.568 26.5739 420.26 41.6433 429.983 61.2497C439.867 80.6941 444.809 103.865 444.809 130.763V131.249C444.809 158.147 439.867 181.4 429.983 201.006C420.26 220.612 406.649 235.763 389.15 246.457C371.65 257.152 351.233 262.499 327.9 262.499ZM328.143 225.068C343.05 225.068 355.932 221.423 366.789 214.131C377.807 206.677 386.314 195.983 392.309 182.048C398.467 167.951 401.545 151.018 401.545 131.249V130.763C401.545 110.995 398.467 94.1431 392.309 80.2079C386.314 66.2728 377.726 55.6595 366.545 48.3678C355.527 41.0762 342.564 37.4304 327.657 37.4304C313.074 37.4304 300.192 41.1572 289.011 48.6109C277.993 55.9025 269.405 66.5159 263.247 80.451C257.09 94.2241 254.011 110.995 254.011 130.763V131.249C254.011 151.018 257.09 167.951 263.247 182.048C269.405 195.983 277.993 206.677 289.011 214.131C300.192 221.423 313.236 225.068 328.143 225.068Z" fill="white"/>
<path d="M467.676 257.638V4.86109H509.967V47.6387H510.939C515.152 33.0554 522.444 21.4698 532.814 12.8819C543.184 4.29396 555.499 0 569.758 0C573.485 0 576.807 0.243054 579.724 0.729163C582.802 1.05324 585.152 1.37731 586.772 1.70138V42.7776C585.152 42.1294 582.235 41.5623 578.022 41.0762C573.971 40.5901 569.353 40.347 564.168 40.347C553.312 40.347 543.752 42.7776 535.488 47.6387C527.386 52.4997 521.066 59.5483 516.529 68.7844C512.155 77.8584 509.967 88.7959 509.967 101.597V257.638H467.676Z" fill="white"/>
<path d="M693.979 262.499C670.645 262.499 650.148 257.152 632.486 246.457C614.986 235.763 601.294 220.612 591.41 201.006C581.687 181.238 576.826 157.985 576.826 131.249V130.763C576.826 103.865 581.687 80.6941 591.41 61.2497C601.294 41.6433 614.986 26.5739 632.486 16.0416C650.148 5.3472 670.564 0 693.736 0C717.069 0 737.485 5.3472 754.985 16.0416C772.647 26.5739 786.339 41.6433 796.061 61.2497C805.946 80.6941 810.888 103.865 810.888 130.763V131.249C810.888 158.147 805.946 181.4 796.061 201.006C786.339 220.612 772.728 235.763 755.228 246.457C737.728 257.152 717.312 262.499 693.979 262.499ZM694.222 225.068C709.129 225.068 722.011 221.423 732.867 214.131C743.886 206.677 752.393 195.983 758.388 182.048C764.545 167.951 767.624 151.018 767.624 131.249V130.763C767.624 110.995 764.545 94.1431 758.388 80.2079C752.393 66.2728 743.805 55.6595 732.624 48.3678C721.606 41.0762 708.643 37.4304 693.736 37.4304C679.152 37.4304 666.27 41.1572 655.09 48.6109C644.071 55.9025 635.484 66.5159 629.326 80.451C623.169 94.2241 620.09 110.995 620.09 130.763V131.249C620.09 151.018 623.169 167.951 629.326 182.048C635.484 195.983 644.071 206.677 655.09 214.131C666.27 221.423 679.314 225.068 694.222 225.068Z" fill="white"/>
<path d="M282.424 576.751C260.827 576.751 242.151 573.299 226.395 566.395C210.64 559.491 198.16 549.844 188.955 537.452C179.926 525.06 174.438 510.632 172.491 494.169L172.226 491.779H218.429L218.96 494.435C221.793 508.243 228.431 519.041 238.876 526.83C249.32 534.442 263.925 538.248 282.689 538.248C295.258 538.248 305.968 536.655 314.82 533.469C323.671 530.105 330.486 525.414 335.266 519.395C340.046 513.199 342.436 505.941 342.436 497.621V497.356C342.436 487.442 339.426 479.476 333.407 473.457C327.388 467.438 316.501 462.482 300.746 458.587L256.932 447.965C239.584 443.717 225.156 438.229 213.65 431.502C202.32 424.598 193.823 416.189 188.158 406.276C182.493 396.363 179.661 384.767 179.661 371.491V371.225C179.661 355.293 183.909 341.219 192.407 329.004C201.081 316.79 213.03 307.23 228.254 300.326C243.655 293.422 261.269 289.97 281.096 289.97C301.277 289.97 318.803 293.599 333.673 300.857C348.72 307.938 360.492 317.675 368.989 330.067C377.664 342.281 382.532 356.089 383.594 371.491L383.859 374.943H339.78L339.515 373.084C337.744 359.63 331.814 348.831 321.724 340.688C311.81 332.545 298.268 328.473 281.096 328.473C269.944 328.473 260.296 330.155 252.153 333.519C244.009 336.882 237.725 341.662 233.299 347.858C229.051 353.876 226.926 360.958 226.926 369.101V369.366C226.926 375.562 228.343 381.227 231.175 386.361C234.185 391.317 238.876 395.654 245.249 399.372C251.622 403.09 259.853 406.187 269.944 408.666L313.757 419.287C341.727 426.014 361.377 435.308 372.707 447.169C384.036 458.853 389.701 474.519 389.701 494.169V494.435C389.701 510.544 385.01 524.794 375.628 537.186C366.422 549.578 353.677 559.314 337.39 566.395C321.281 573.299 302.959 576.751 282.424 576.751Z" fill="white"/>
<path d="M529.661 576.751C503.284 576.751 480.537 570.91 461.418 559.226C442.476 547.542 427.871 531.079 417.604 509.836C407.514 488.416 402.468 463.278 402.468 434.423V434.157C402.468 405.656 407.602 380.607 417.87 359.01C428.137 337.236 442.565 320.33 461.152 308.292C479.74 296.078 501.603 289.97 526.74 289.97C551.878 289.97 573.475 295.812 591.531 307.496C609.765 319.002 623.75 335.2 633.486 356.089C643.223 376.978 648.091 401.231 648.091 428.847V445.841H425.57V409.728H625.255L601.887 443.186V425.395C601.887 403.975 598.612 386.272 592.062 372.287C585.69 358.302 576.838 347.946 565.509 341.219C554.179 334.315 541.168 330.863 526.475 330.863C511.782 330.863 498.593 334.492 486.909 341.75C475.226 348.831 466.02 359.453 459.293 373.615C452.567 387.6 449.203 404.86 449.203 425.395V443.186C449.203 462.659 452.478 479.299 459.028 493.107C465.755 506.915 475.226 517.536 487.44 524.971C499.655 532.23 514.083 535.859 530.723 535.859C542.407 535.859 552.851 534.088 562.057 530.548C571.262 527.007 578.963 522.139 585.159 515.943C591.354 509.747 595.78 502.666 598.435 494.7L599.232 492.31H644.639L644.108 494.966C641.807 506.295 637.381 516.917 630.831 526.83C624.458 536.744 616.226 545.506 606.136 553.119C596.046 560.554 584.539 566.395 571.616 570.644C558.693 574.716 544.708 576.751 529.661 576.751Z" fill="white"/>
<path d="M673.073 571.441V295.281H719.276V334.581H720.339C727.774 321.658 738.572 311.036 752.734 302.716C766.896 294.219 784.422 289.97 805.311 289.97C835.582 289.97 859.038 299.176 875.678 317.586C892.496 335.82 900.904 360.692 900.904 392.202V571.441H854.701V400.434C854.701 377.952 849.39 360.78 838.768 348.92C828.324 336.882 812.48 330.863 791.237 330.863C776.721 330.863 764.064 334.138 753.265 340.688C742.467 347.061 734.058 356.089 728.039 367.773C722.197 379.457 719.276 393.176 719.276 408.931V571.441H673.073Z" fill="white"/>
<path d="M1036.08 576.751C1014.49 576.751 995.811 573.299 980.056 566.395C964.301 559.491 951.82 549.844 942.615 537.452C933.587 525.06 928.099 510.632 926.152 494.169L925.886 491.779H972.09L972.621 494.435C975.453 508.243 982.092 519.041 992.536 526.83C1002.98 534.442 1017.59 538.248 1036.35 538.248C1048.92 538.248 1059.63 536.655 1068.48 533.469C1077.33 530.105 1084.15 525.414 1088.93 519.395C1093.71 513.199 1096.1 505.941 1096.1 497.621V497.356C1096.1 487.442 1093.09 479.476 1087.07 473.457C1081.05 467.438 1070.16 462.482 1054.41 458.587L1010.59 447.965C993.244 443.717 978.817 438.229 967.31 431.502C955.981 424.598 947.483 416.189 941.818 406.276C936.154 396.363 933.321 384.767 933.321 371.491V371.225C933.321 355.293 937.57 341.219 946.067 329.004C954.741 316.79 966.691 307.23 981.915 300.326C997.316 293.422 1014.93 289.97 1034.76 289.97C1054.94 289.97 1072.46 293.599 1087.33 300.857C1102.38 307.938 1114.15 317.675 1122.65 330.067C1131.32 342.281 1136.19 356.089 1137.25 371.491L1137.52 374.943H1093.44L1093.18 373.084C1091.4 359.63 1085.47 348.831 1075.38 340.688C1065.47 332.545 1051.93 328.473 1034.76 328.473C1023.6 328.473 1013.96 330.155 1005.81 333.519C997.67 336.882 991.386 341.662 986.96 347.858C982.711 353.876 980.587 360.958 980.587 369.101V369.366C980.587 375.562 982.003 381.227 984.836 386.361C987.845 391.317 992.536 395.654 998.909 399.372C1005.28 403.09 1013.51 406.187 1023.6 408.666L1067.42 419.287C1095.39 426.014 1115.04 435.308 1126.37 447.169C1137.7 458.853 1143.36 474.519 1143.36 494.169V494.435C1143.36 510.544 1138.67 524.794 1129.29 537.186C1120.08 549.578 1107.34 559.314 1091.05 566.395C1074.94 573.299 1056.62 576.751 1036.08 576.751Z" fill="white"/>
<path d="M1283.32 576.751C1256.94 576.751 1234.2 570.91 1215.08 559.226C1196.14 547.542 1181.53 531.079 1171.26 509.836C1161.17 488.416 1156.13 463.278 1156.13 434.423V434.157C1156.13 405.656 1161.26 380.607 1171.53 359.01C1181.8 337.236 1196.23 320.33 1214.81 308.292C1233.4 296.078 1255.26 289.97 1280.4 289.97C1305.54 289.97 1327.14 295.812 1345.19 307.496C1363.43 319.002 1377.41 335.2 1387.15 356.089C1396.88 376.978 1401.75 401.231 1401.75 428.847V445.841H1179.23V409.728H1378.92L1355.55 443.186V425.395C1355.55 403.975 1352.27 386.272 1345.72 372.287C1339.35 358.302 1330.5 347.946 1319.17 341.219C1307.84 334.315 1294.83 330.863 1280.14 330.863C1265.44 330.863 1252.25 334.492 1240.57 341.75C1228.89 348.831 1219.68 359.453 1212.95 373.615C1206.23 387.6 1202.86 404.86 1202.86 425.395V443.186C1202.86 462.659 1206.14 479.299 1212.69 493.107C1219.42 506.915 1228.89 517.536 1241.1 524.971C1253.32 532.23 1267.74 535.859 1284.38 535.859C1296.07 535.859 1306.51 534.088 1315.72 530.548C1324.92 527.007 1332.62 522.139 1338.82 515.943C1345.01 509.747 1349.44 502.666 1352.1 494.7L1352.89 492.31H1398.3L1397.77 494.966C1395.47 506.295 1391.04 516.917 1384.49 526.83C1378.12 536.744 1369.89 545.506 1359.8 553.119C1349.71 560.554 1338.2 566.395 1325.28 570.644C1312.35 574.716 1298.37 576.751 1283.32 576.751Z" fill="white"/>
<path d="M719.893 229.752V695.202H671.175V229.752H719.893Z" fill="white"/>
<path d="M782.464 571.441V695.202H728.583V571.441H782.464Z" fill="white"/>
</svg>
