<svg width="1105" height="453" viewBox="0 0 1105 453" fill="none" xmlns="http://www.w3.org/2000/svg">
<mask id="path-1-outside-1_35_37" maskUnits="userSpaceOnUse" x="-0.757324" y="-0.99292" width="1106" height="454" fill="black">
<rect fill="white" x="-0.757324" y="-0.99292" width="1106" height="454"/>
<path d="M173.247 447.029C139.733 447.029 110.751 441.672 86.3024 430.959C61.8537 420.245 42.487 405.274 28.2023 386.045C14.1923 366.815 5.67649 344.427 2.65473 318.879L2.24268 315.171H73.9407L74.7648 319.291C79.1601 340.718 89.4615 357.475 105.669 369.562C121.877 381.375 144.54 387.281 173.659 387.281C193.163 387.281 209.782 384.809 223.518 379.864C237.253 374.644 247.829 367.365 255.246 358.025C262.663 348.41 266.372 337.147 266.372 324.236V323.824C266.372 308.441 261.702 296.079 252.362 286.739C243.022 277.399 226.127 269.707 201.679 263.664L133.689 247.181C106.768 240.588 84.3795 232.073 66.5237 221.634C48.9425 210.92 35.7567 197.872 26.9661 182.488C18.1756 167.105 13.7803 149.112 13.7803 128.509V128.097C13.7803 103.373 20.3732 81.5342 33.559 62.5795C47.0196 43.6249 65.5622 28.7908 89.1868 18.0773C113.086 7.36383 140.419 2.00708 171.186 2.00708C202.503 2.00708 229.698 7.63853 252.774 18.9014C276.124 29.8896 294.391 44.9984 307.577 64.2278C321.038 83.1824 328.592 104.609 330.24 128.509L330.653 133.865H262.251L261.839 130.981C259.092 110.103 249.889 93.3465 234.231 80.7101C218.848 68.0736 197.833 61.7554 171.186 61.7554C153.88 61.7554 138.908 64.3651 126.272 69.5845C113.636 74.8039 103.884 82.2209 97.0159 91.8356C90.423 101.176 87.1265 112.164 87.1265 124.8V125.212C87.1265 134.827 89.3242 143.618 93.7194 151.584C98.3894 159.276 105.669 166.006 115.558 171.775C125.448 177.544 138.222 182.351 153.88 186.197L221.869 202.679C265.273 213.118 295.765 227.54 313.346 245.945C330.927 264.076 339.718 288.387 339.718 318.879V319.291C339.718 344.29 332.438 366.403 317.879 385.633C303.594 404.862 283.815 419.971 258.542 430.959C233.544 441.672 205.112 447.029 173.247 447.029Z"/>
<path d="M448.309 220.414C429.174 220.414 412.364 216.029 397.88 207.259C383.529 198.489 372.3 186.064 364.195 169.986C356.222 153.774 352.235 134.706 352.235 112.78V112.381C352.235 90.3231 356.222 71.3211 364.195 55.3753C372.3 39.2966 383.529 26.9386 397.88 18.3013C412.364 9.53115 429.107 5.14606 448.109 5.14606C467.244 5.14606 483.987 9.53115 498.338 18.3013C512.823 26.9386 524.051 39.2966 532.024 55.3753C540.13 71.3211 544.183 90.3231 544.183 112.381V112.78C544.183 134.838 540.13 153.907 532.024 169.986C524.051 186.064 512.889 198.489 498.538 207.259C484.187 216.029 467.444 220.414 448.309 220.414ZM448.508 189.719C460.733 189.719 471.297 186.729 480.2 180.749C489.236 174.636 496.212 165.866 501.129 154.438C506.178 142.878 508.703 128.992 508.703 112.78V112.381C508.703 96.1699 506.178 82.3502 501.129 70.9224C496.212 59.4946 489.17 50.7909 480.001 44.8112C470.965 38.8315 460.334 35.8417 448.109 35.8417C436.15 35.8417 425.586 38.898 416.417 45.0105C407.381 50.9902 400.338 59.6939 395.289 71.1217C390.239 82.4167 387.715 96.1699 387.715 112.381V112.78C387.715 128.992 390.239 142.878 395.289 154.438C400.338 165.866 407.381 174.636 416.417 180.749C425.586 186.729 436.283 189.719 448.508 189.719Z"/>
<path d="M562.935 216.428V9.13251H597.617V44.2132H598.414C601.869 32.2539 607.849 22.7529 616.353 15.7101C624.858 8.66742 634.957 5.14606 646.65 5.14606C649.706 5.14606 652.431 5.34538 654.822 5.74403C657.347 6.00979 659.274 6.27556 660.603 6.54132V40.2268C659.274 39.6953 656.882 39.2302 653.427 38.8315C650.105 38.4329 646.318 38.2336 642.066 38.2336C633.163 38.2336 625.323 40.2268 618.546 44.2132C611.902 48.1997 606.719 53.98 602.999 61.5543C599.411 68.9956 597.617 77.9651 597.617 88.4628V216.428H562.935Z"/>
<path d="M748.52 220.414C729.385 220.414 712.575 216.029 698.091 207.259C683.74 198.489 672.512 186.064 664.406 169.986C656.433 153.774 652.447 134.706 652.447 112.78V112.381C652.447 90.3231 656.433 71.3211 664.406 55.3753C672.512 39.2966 683.74 26.9386 698.091 18.3013C712.575 9.53115 729.318 5.14606 748.321 5.14606C767.455 5.14606 784.199 9.53115 798.55 18.3013C813.034 26.9386 824.262 39.2966 832.235 55.3753C840.341 71.3211 844.394 90.3231 844.394 112.381V112.78C844.394 134.838 840.341 153.907 832.235 169.986C824.262 186.064 813.1 198.489 798.749 207.259C784.398 216.029 767.655 220.414 748.52 220.414ZM748.719 189.719C760.944 189.719 771.508 186.729 780.411 180.749C789.447 174.636 796.424 165.866 801.34 154.438C806.39 142.878 808.914 128.992 808.914 112.78V112.381C808.914 96.1699 806.39 82.3502 801.34 70.9224C796.424 59.4946 789.381 50.7909 780.212 44.8112C771.176 38.8315 760.546 35.8417 748.321 35.8417C736.361 35.8417 725.797 38.898 716.628 45.0105C707.592 50.9902 700.55 59.6939 695.5 71.1217C690.451 82.4167 687.926 96.1699 687.926 112.381V112.78C687.926 128.992 690.451 142.878 695.5 154.438C700.55 165.866 707.592 174.636 716.628 180.749C725.797 186.729 736.494 189.719 748.719 189.719Z"/>
<path d="M447.711 450.414C427.911 450.414 410.836 446.029 396.485 437.259C382.266 428.489 371.304 416.131 363.597 400.185C356.022 384.106 352.235 365.237 352.235 343.577V343.378C352.235 321.984 356.089 303.181 363.796 286.97C371.503 270.625 382.333 257.935 396.285 248.899C410.238 239.73 426.649 235.146 445.518 235.146C464.387 235.146 480.599 239.531 494.153 248.301C507.84 256.939 518.337 269.097 525.646 284.777C532.954 300.457 536.608 318.662 536.608 339.392V352.148H369.576V325.04H519.467L501.926 350.155V336.8C501.926 320.722 499.468 307.434 494.551 296.936C489.768 286.438 483.124 278.665 474.619 273.615C466.115 268.433 456.348 265.842 445.319 265.842C434.29 265.842 424.39 268.566 415.62 274.014C406.85 279.329 399.94 287.302 394.89 297.933C389.841 308.43 387.316 321.386 387.316 336.8V350.155C387.316 364.772 389.774 377.263 394.691 387.628C399.74 397.992 406.85 405.965 416.018 411.546C425.187 416.994 436.017 419.719 448.508 419.719C457.278 419.719 465.118 418.39 472.028 415.732C478.938 413.074 484.718 409.42 489.369 404.769C494.02 400.118 497.342 394.803 499.335 388.824L499.933 387.03H534.017L533.619 389.023C531.891 397.527 528.569 405.5 523.652 412.942C518.869 420.383 512.69 426.961 505.115 432.674C497.541 438.255 488.904 442.641 479.204 445.83C469.503 448.886 459.006 450.414 447.711 450.414Z"/>
<path d="M555.361 446.428V239.133H590.043V268.632H590.84C596.421 258.932 604.527 250.959 615.157 244.714C625.788 238.335 638.943 235.146 654.623 235.146C677.346 235.146 694.953 242.056 707.444 255.876C720.067 269.562 726.379 288.232 726.379 311.885V446.428H691.697V318.064C691.697 301.188 687.711 288.299 679.738 279.396C671.898 270.36 660.005 265.842 644.059 265.842C633.163 265.842 623.662 268.3 615.556 273.217C607.45 278 601.138 284.777 596.62 293.547C592.235 302.318 590.043 312.616 590.043 324.442V446.428H555.361Z"/>
<path d="M827.85 450.414C811.639 450.414 797.62 447.823 785.793 442.641C773.967 437.458 764.598 430.216 757.689 420.914C750.912 411.613 746.792 400.783 745.331 388.425L745.131 386.631H779.813L780.212 388.624C782.338 398.989 787.321 407.095 795.161 412.942C803.001 418.655 813.964 421.512 828.049 421.512C837.484 421.512 845.523 420.316 852.167 417.925C858.812 415.4 863.927 411.879 867.515 407.361C871.103 402.71 872.897 397.262 872.897 391.016V390.817C872.897 383.375 870.638 377.396 866.12 372.878C861.602 368.36 853.43 364.639 841.603 361.716L808.715 353.743C795.693 350.554 784.863 346.434 776.226 341.385C767.721 336.202 761.343 329.891 757.091 322.449C752.838 315.008 750.712 306.304 750.712 296.338V296.139C750.712 284.179 753.902 273.615 760.28 264.446C766.791 255.278 775.761 248.102 787.188 242.92C798.749 237.737 811.971 235.146 826.854 235.146C842.002 235.146 855.157 237.87 866.319 243.318C877.614 248.634 886.451 255.942 892.829 265.244C899.34 274.413 902.995 284.777 903.792 296.338L903.991 298.929H870.904L870.704 297.534C869.376 287.435 864.924 279.329 857.35 273.217C849.908 267.104 839.743 264.048 826.854 264.048C818.482 264.048 811.24 265.31 805.127 267.835C799.015 270.36 794.298 273.947 790.976 278.598C787.786 283.116 786.192 288.432 786.192 294.544V294.743C786.192 299.394 787.255 303.646 789.381 307.5C791.64 311.221 795.161 314.476 799.945 317.267C804.729 320.057 810.908 322.383 818.482 324.243L851.37 332.216C872.365 337.266 887.115 344.242 895.62 353.145C904.124 361.915 908.376 373.675 908.376 388.425V388.624C908.376 400.716 904.855 411.413 897.812 420.715C890.902 430.017 881.335 437.325 869.11 442.641C857.018 447.823 843.264 450.414 827.85 450.414Z"/>
<path d="M1013.44 450.414C993.636 450.414 976.56 446.029 962.209 437.259C947.991 428.489 937.028 416.131 929.321 400.185C921.747 384.106 917.96 365.237 917.96 343.577V343.378C917.96 321.984 921.813 303.181 929.52 286.97C937.228 270.625 948.057 257.935 962.01 248.899C975.963 239.73 992.373 235.146 1011.24 235.146C1030.11 235.146 1046.32 239.531 1059.88 248.301C1073.56 256.939 1084.06 269.097 1091.37 284.777C1098.68 300.457 1102.33 318.662 1102.33 339.392V352.148H935.301V325.04H1085.19L1067.65 350.155V336.8C1067.65 320.722 1065.19 307.434 1060.28 296.936C1055.49 286.438 1048.85 278.665 1040.34 273.615C1031.84 268.433 1022.07 265.842 1011.04 265.842C1000.01 265.842 990.114 268.566 981.344 274.014C972.574 279.329 965.664 287.302 960.615 297.933C955.565 308.43 953.04 321.386 953.04 336.8V350.155C953.04 364.772 955.499 377.263 960.415 387.628C965.465 397.992 972.574 405.965 981.743 411.546C990.912 416.994 1001.74 419.719 1014.23 419.719C1023 419.719 1030.84 418.39 1037.75 415.732C1044.66 413.074 1050.44 409.42 1055.09 404.769C1059.74 400.118 1063.07 394.803 1065.06 388.824L1065.66 387.03H1099.74L1099.34 389.023C1097.62 397.527 1094.29 405.5 1089.38 412.942C1084.59 420.383 1078.41 426.961 1070.84 432.674C1063.27 438.255 1054.63 442.641 1044.93 445.83C1035.23 448.886 1024.73 450.414 1013.44 450.414Z"/>
</mask>
<path d="M173.247 447.029C139.733 447.029 110.751 441.672 86.3024 430.959C61.8537 420.245 42.487 405.274 28.2023 386.045C14.1923 366.815 5.67649 344.427 2.65473 318.879L2.24268 315.171H73.9407L74.7648 319.291C79.1601 340.718 89.4615 357.475 105.669 369.562C121.877 381.375 144.54 387.281 173.659 387.281C193.163 387.281 209.782 384.809 223.518 379.864C237.253 374.644 247.829 367.365 255.246 358.025C262.663 348.41 266.372 337.147 266.372 324.236V323.824C266.372 308.441 261.702 296.079 252.362 286.739C243.022 277.399 226.127 269.707 201.679 263.664L133.689 247.181C106.768 240.588 84.3795 232.073 66.5237 221.634C48.9425 210.92 35.7567 197.872 26.9661 182.488C18.1756 167.105 13.7803 149.112 13.7803 128.509V128.097C13.7803 103.373 20.3732 81.5342 33.559 62.5795C47.0196 43.6249 65.5622 28.7908 89.1868 18.0773C113.086 7.36383 140.419 2.00708 171.186 2.00708C202.503 2.00708 229.698 7.63853 252.774 18.9014C276.124 29.8896 294.391 44.9984 307.577 64.2278C321.038 83.1824 328.592 104.609 330.24 128.509L330.653 133.865H262.251L261.839 130.981C259.092 110.103 249.889 93.3465 234.231 80.7101C218.848 68.0736 197.833 61.7554 171.186 61.7554C153.88 61.7554 138.908 64.3651 126.272 69.5845C113.636 74.8039 103.884 82.2209 97.0159 91.8356C90.423 101.176 87.1265 112.164 87.1265 124.8V125.212C87.1265 134.827 89.3242 143.618 93.7194 151.584C98.3894 159.276 105.669 166.006 115.558 171.775C125.448 177.544 138.222 182.351 153.88 186.197L221.869 202.679C265.273 213.118 295.765 227.54 313.346 245.945C330.927 264.076 339.718 288.387 339.718 318.879V319.291C339.718 344.29 332.438 366.403 317.879 385.633C303.594 404.862 283.815 419.971 258.542 430.959C233.544 441.672 205.112 447.029 173.247 447.029Z" fill="white"/>
<path d="M448.309 220.414C429.174 220.414 412.364 216.029 397.88 207.259C383.529 198.489 372.3 186.064 364.195 169.986C356.222 153.774 352.235 134.706 352.235 112.78V112.381C352.235 90.3231 356.222 71.3211 364.195 55.3753C372.3 39.2966 383.529 26.9386 397.88 18.3013C412.364 9.53115 429.107 5.14606 448.109 5.14606C467.244 5.14606 483.987 9.53115 498.338 18.3013C512.823 26.9386 524.051 39.2966 532.024 55.3753C540.13 71.3211 544.183 90.3231 544.183 112.381V112.78C544.183 134.838 540.13 153.907 532.024 169.986C524.051 186.064 512.889 198.489 498.538 207.259C484.187 216.029 467.444 220.414 448.309 220.414ZM448.508 189.719C460.733 189.719 471.297 186.729 480.2 180.749C489.236 174.636 496.212 165.866 501.129 154.438C506.178 142.878 508.703 128.992 508.703 112.78V112.381C508.703 96.1699 506.178 82.3502 501.129 70.9224C496.212 59.4946 489.17 50.7909 480.001 44.8112C470.965 38.8315 460.334 35.8417 448.109 35.8417C436.15 35.8417 425.586 38.898 416.417 45.0105C407.381 50.9902 400.338 59.6939 395.289 71.1217C390.239 82.4167 387.715 96.1699 387.715 112.381V112.78C387.715 128.992 390.239 142.878 395.289 154.438C400.338 165.866 407.381 174.636 416.417 180.749C425.586 186.729 436.283 189.719 448.508 189.719Z" fill="white"/>
<path d="M562.935 216.428V9.13251H597.617V44.2132H598.414C601.869 32.2539 607.849 22.7529 616.353 15.7101C624.858 8.66742 634.957 5.14606 646.65 5.14606C649.706 5.14606 652.431 5.34538 654.822 5.74403C657.347 6.00979 659.274 6.27556 660.603 6.54132V40.2268C659.274 39.6953 656.882 39.2302 653.427 38.8315C650.105 38.4329 646.318 38.2336 642.066 38.2336C633.163 38.2336 625.323 40.2268 618.546 44.2132C611.902 48.1997 606.719 53.98 602.999 61.5543C599.411 68.9956 597.617 77.9651 597.617 88.4628V216.428H562.935Z" fill="white"/>
<path d="M748.52 220.414C729.385 220.414 712.575 216.029 698.091 207.259C683.74 198.489 672.512 186.064 664.406 169.986C656.433 153.774 652.447 134.706 652.447 112.78V112.381C652.447 90.3231 656.433 71.3211 664.406 55.3753C672.512 39.2966 683.74 26.9386 698.091 18.3013C712.575 9.53115 729.318 5.14606 748.321 5.14606C767.455 5.14606 784.199 9.53115 798.55 18.3013C813.034 26.9386 824.262 39.2966 832.235 55.3753C840.341 71.3211 844.394 90.3231 844.394 112.381V112.78C844.394 134.838 840.341 153.907 832.235 169.986C824.262 186.064 813.1 198.489 798.749 207.259C784.398 216.029 767.655 220.414 748.52 220.414ZM748.719 189.719C760.944 189.719 771.508 186.729 780.411 180.749C789.447 174.636 796.424 165.866 801.34 154.438C806.39 142.878 808.914 128.992 808.914 112.78V112.381C808.914 96.1699 806.39 82.3502 801.34 70.9224C796.424 59.4946 789.381 50.7909 780.212 44.8112C771.176 38.8315 760.546 35.8417 748.321 35.8417C736.361 35.8417 725.797 38.898 716.628 45.0105C707.592 50.9902 700.55 59.6939 695.5 71.1217C690.451 82.4167 687.926 96.1699 687.926 112.381V112.78C687.926 128.992 690.451 142.878 695.5 154.438C700.55 165.866 707.592 174.636 716.628 180.749C725.797 186.729 736.494 189.719 748.719 189.719Z" fill="white"/>
<path d="M447.711 450.414C427.911 450.414 410.836 446.029 396.485 437.259C382.266 428.489 371.304 416.131 363.597 400.185C356.022 384.106 352.235 365.237 352.235 343.577V343.378C352.235 321.984 356.089 303.181 363.796 286.97C371.503 270.625 382.333 257.935 396.285 248.899C410.238 239.73 426.649 235.146 445.518 235.146C464.387 235.146 480.599 239.531 494.153 248.301C507.84 256.939 518.337 269.097 525.646 284.777C532.954 300.457 536.608 318.662 536.608 339.392V352.148H369.576V325.04H519.467L501.926 350.155V336.8C501.926 320.722 499.468 307.434 494.551 296.936C489.768 286.438 483.124 278.665 474.619 273.615C466.115 268.433 456.348 265.842 445.319 265.842C434.29 265.842 424.39 268.566 415.62 274.014C406.85 279.329 399.94 287.302 394.89 297.933C389.841 308.43 387.316 321.386 387.316 336.8V350.155C387.316 364.772 389.774 377.263 394.691 387.628C399.74 397.992 406.85 405.965 416.018 411.546C425.187 416.994 436.017 419.719 448.508 419.719C457.278 419.719 465.118 418.39 472.028 415.732C478.938 413.074 484.718 409.42 489.369 404.769C494.02 400.118 497.342 394.803 499.335 388.824L499.933 387.03H534.017L533.619 389.023C531.891 397.527 528.569 405.5 523.652 412.942C518.869 420.383 512.69 426.961 505.115 432.674C497.541 438.255 488.904 442.641 479.204 445.83C469.503 448.886 459.006 450.414 447.711 450.414Z" fill="white"/>
<path d="M555.361 446.428V239.133H590.043V268.632H590.84C596.421 258.932 604.527 250.959 615.157 244.714C625.788 238.335 638.943 235.146 654.623 235.146C677.346 235.146 694.953 242.056 707.444 255.876C720.067 269.562 726.379 288.232 726.379 311.885V446.428H691.697V318.064C691.697 301.188 687.711 288.299 679.738 279.396C671.898 270.36 660.005 265.842 644.059 265.842C633.163 265.842 623.662 268.3 615.556 273.217C607.45 278 601.138 284.777 596.62 293.547C592.235 302.318 590.043 312.616 590.043 324.442V446.428H555.361Z" fill="white"/>
<path d="M827.85 450.414C811.639 450.414 797.62 447.823 785.793 442.641C773.967 437.458 764.598 430.216 757.689 420.914C750.912 411.613 746.792 400.783 745.331 388.425L745.131 386.631H779.813L780.212 388.624C782.338 398.989 787.321 407.095 795.161 412.942C803.001 418.655 813.964 421.512 828.049 421.512C837.484 421.512 845.523 420.316 852.167 417.925C858.812 415.4 863.927 411.879 867.515 407.361C871.103 402.71 872.897 397.262 872.897 391.016V390.817C872.897 383.375 870.638 377.396 866.12 372.878C861.602 368.36 853.43 364.639 841.603 361.716L808.715 353.743C795.693 350.554 784.863 346.434 776.226 341.385C767.721 336.202 761.343 329.891 757.091 322.449C752.838 315.008 750.712 306.304 750.712 296.338V296.139C750.712 284.179 753.902 273.615 760.28 264.446C766.791 255.278 775.761 248.102 787.188 242.92C798.749 237.737 811.971 235.146 826.854 235.146C842.002 235.146 855.157 237.87 866.319 243.318C877.614 248.634 886.451 255.942 892.829 265.244C899.34 274.413 902.995 284.777 903.792 296.338L903.991 298.929H870.904L870.704 297.534C869.376 287.435 864.924 279.329 857.35 273.217C849.908 267.104 839.743 264.048 826.854 264.048C818.482 264.048 811.24 265.31 805.127 267.835C799.015 270.36 794.298 273.947 790.976 278.598C787.786 283.116 786.192 288.432 786.192 294.544V294.743C786.192 299.394 787.255 303.646 789.381 307.5C791.64 311.221 795.161 314.476 799.945 317.267C804.729 320.057 810.908 322.383 818.482 324.243L851.37 332.216C872.365 337.266 887.115 344.242 895.62 353.145C904.124 361.915 908.376 373.675 908.376 388.425V388.624C908.376 400.716 904.855 411.413 897.812 420.715C890.902 430.017 881.335 437.325 869.11 442.641C857.018 447.823 843.264 450.414 827.85 450.414Z" fill="white"/>
<path d="M1013.44 450.414C993.636 450.414 976.56 446.029 962.209 437.259C947.991 428.489 937.028 416.131 929.321 400.185C921.747 384.106 917.96 365.237 917.96 343.577V343.378C917.96 321.984 921.813 303.181 929.52 286.97C937.228 270.625 948.057 257.935 962.01 248.899C975.963 239.73 992.373 235.146 1011.24 235.146C1030.11 235.146 1046.32 239.531 1059.88 248.301C1073.56 256.939 1084.06 269.097 1091.37 284.777C1098.68 300.457 1102.33 318.662 1102.33 339.392V352.148H935.301V325.04H1085.19L1067.65 350.155V336.8C1067.65 320.722 1065.19 307.434 1060.28 296.936C1055.49 286.438 1048.85 278.665 1040.34 273.615C1031.84 268.433 1022.07 265.842 1011.04 265.842C1000.01 265.842 990.114 268.566 981.344 274.014C972.574 279.329 965.664 287.302 960.615 297.933C955.565 308.43 953.04 321.386 953.04 336.8V350.155C953.04 364.772 955.499 377.263 960.415 387.628C965.465 397.992 972.574 405.965 981.743 411.546C990.912 416.994 1001.74 419.719 1014.23 419.719C1023 419.719 1030.84 418.39 1037.75 415.732C1044.66 413.074 1050.44 409.42 1055.09 404.769C1059.74 400.118 1063.07 394.803 1065.06 388.824L1065.66 387.03H1099.74L1099.34 389.023C1097.62 397.527 1094.29 405.5 1089.38 412.942C1084.59 420.383 1078.41 426.961 1070.84 432.674C1063.27 438.255 1054.63 442.641 1044.93 445.83C1035.23 448.886 1024.73 450.414 1013.44 450.414Z" fill="white"/>
<path d="M173.247 447.029C139.733 447.029 110.751 441.672 86.3024 430.959C61.8537 420.245 42.487 405.274 28.2023 386.045C14.1923 366.815 5.67649 344.427 2.65473 318.879L2.24268 315.171H73.9407L74.7648 319.291C79.1601 340.718 89.4615 357.475 105.669 369.562C121.877 381.375 144.54 387.281 173.659 387.281C193.163 387.281 209.782 384.809 223.518 379.864C237.253 374.644 247.829 367.365 255.246 358.025C262.663 348.41 266.372 337.147 266.372 324.236V323.824C266.372 308.441 261.702 296.079 252.362 286.739C243.022 277.399 226.127 269.707 201.679 263.664L133.689 247.181C106.768 240.588 84.3795 232.073 66.5237 221.634C48.9425 210.92 35.7567 197.872 26.9661 182.488C18.1756 167.105 13.7803 149.112 13.7803 128.509V128.097C13.7803 103.373 20.3732 81.5342 33.559 62.5795C47.0196 43.6249 65.5622 28.7908 89.1868 18.0773C113.086 7.36383 140.419 2.00708 171.186 2.00708C202.503 2.00708 229.698 7.63853 252.774 18.9014C276.124 29.8896 294.391 44.9984 307.577 64.2278C321.038 83.1824 328.592 104.609 330.24 128.509L330.653 133.865H262.251L261.839 130.981C259.092 110.103 249.889 93.3465 234.231 80.7101C218.848 68.0736 197.833 61.7554 171.186 61.7554C153.88 61.7554 138.908 64.3651 126.272 69.5845C113.636 74.8039 103.884 82.2209 97.0159 91.8356C90.423 101.176 87.1265 112.164 87.1265 124.8V125.212C87.1265 134.827 89.3242 143.618 93.7194 151.584C98.3894 159.276 105.669 166.006 115.558 171.775C125.448 177.544 138.222 182.351 153.88 186.197L221.869 202.679C265.273 213.118 295.765 227.54 313.346 245.945C330.927 264.076 339.718 288.387 339.718 318.879V319.291C339.718 344.29 332.438 366.403 317.879 385.633C303.594 404.862 283.815 419.971 258.542 430.959C233.544 441.672 205.112 447.029 173.247 447.029Z" stroke="white" stroke-width="4.01438" mask="url(#path-1-outside-1_35_37)"/>
<path d="M448.309 220.414C429.174 220.414 412.364 216.029 397.88 207.259C383.529 198.489 372.3 186.064 364.195 169.986C356.222 153.774 352.235 134.706 352.235 112.78V112.381C352.235 90.3231 356.222 71.3211 364.195 55.3753C372.3 39.2966 383.529 26.9386 397.88 18.3013C412.364 9.53115 429.107 5.14606 448.109 5.14606C467.244 5.14606 483.987 9.53115 498.338 18.3013C512.823 26.9386 524.051 39.2966 532.024 55.3753C540.13 71.3211 544.183 90.3231 544.183 112.381V112.78C544.183 134.838 540.13 153.907 532.024 169.986C524.051 186.064 512.889 198.489 498.538 207.259C484.187 216.029 467.444 220.414 448.309 220.414ZM448.508 189.719C460.733 189.719 471.297 186.729 480.2 180.749C489.236 174.636 496.212 165.866 501.129 154.438C506.178 142.878 508.703 128.992 508.703 112.78V112.381C508.703 96.1699 506.178 82.3502 501.129 70.9224C496.212 59.4946 489.17 50.7909 480.001 44.8112C470.965 38.8315 460.334 35.8417 448.109 35.8417C436.15 35.8417 425.586 38.898 416.417 45.0105C407.381 50.9902 400.338 59.6939 395.289 71.1217C390.239 82.4167 387.715 96.1699 387.715 112.381V112.78C387.715 128.992 390.239 142.878 395.289 154.438C400.338 165.866 407.381 174.636 416.417 180.749C425.586 186.729 436.283 189.719 448.508 189.719Z" stroke="white" stroke-width="4.01438" mask="url(#path-1-outside-1_35_37)"/>
<path d="M562.935 216.428V9.13251H597.617V44.2132H598.414C601.869 32.2539 607.849 22.7529 616.353 15.7101C624.858 8.66742 634.957 5.14606 646.65 5.14606C649.706 5.14606 652.431 5.34538 654.822 5.74403C657.347 6.00979 659.274 6.27556 660.603 6.54132V40.2268C659.274 39.6953 656.882 39.2302 653.427 38.8315C650.105 38.4329 646.318 38.2336 642.066 38.2336C633.163 38.2336 625.323 40.2268 618.546 44.2132C611.902 48.1997 606.719 53.98 602.999 61.5543C599.411 68.9956 597.617 77.9651 597.617 88.4628V216.428H562.935Z" stroke="white" stroke-width="4.01438" mask="url(#path-1-outside-1_35_37)"/>
<path d="M748.52 220.414C729.385 220.414 712.575 216.029 698.091 207.259C683.74 198.489 672.512 186.064 664.406 169.986C656.433 153.774 652.447 134.706 652.447 112.78V112.381C652.447 90.3231 656.433 71.3211 664.406 55.3753C672.512 39.2966 683.74 26.9386 698.091 18.3013C712.575 9.53115 729.318 5.14606 748.321 5.14606C767.455 5.14606 784.199 9.53115 798.55 18.3013C813.034 26.9386 824.262 39.2966 832.235 55.3753C840.341 71.3211 844.394 90.3231 844.394 112.381V112.78C844.394 134.838 840.341 153.907 832.235 169.986C824.262 186.064 813.1 198.489 798.749 207.259C784.398 216.029 767.655 220.414 748.52 220.414ZM748.719 189.719C760.944 189.719 771.508 186.729 780.411 180.749C789.447 174.636 796.424 165.866 801.34 154.438C806.39 142.878 808.914 128.992 808.914 112.78V112.381C808.914 96.1699 806.39 82.3502 801.34 70.9224C796.424 59.4946 789.381 50.7909 780.212 44.8112C771.176 38.8315 760.546 35.8417 748.321 35.8417C736.361 35.8417 725.797 38.898 716.628 45.0105C707.592 50.9902 700.55 59.6939 695.5 71.1217C690.451 82.4167 687.926 96.1699 687.926 112.381V112.78C687.926 128.992 690.451 142.878 695.5 154.438C700.55 165.866 707.592 174.636 716.628 180.749C725.797 186.729 736.494 189.719 748.719 189.719Z" stroke="white" stroke-width="4.01438" mask="url(#path-1-outside-1_35_37)"/>
<path d="M447.711 450.414C427.911 450.414 410.836 446.029 396.485 437.259C382.266 428.489 371.304 416.131 363.597 400.185C356.022 384.106 352.235 365.237 352.235 343.577V343.378C352.235 321.984 356.089 303.181 363.796 286.97C371.503 270.625 382.333 257.935 396.285 248.899C410.238 239.73 426.649 235.146 445.518 235.146C464.387 235.146 480.599 239.531 494.153 248.301C507.84 256.939 518.337 269.097 525.646 284.777C532.954 300.457 536.608 318.662 536.608 339.392V352.148H369.576V325.04H519.467L501.926 350.155V336.8C501.926 320.722 499.468 307.434 494.551 296.936C489.768 286.438 483.124 278.665 474.619 273.615C466.115 268.433 456.348 265.842 445.319 265.842C434.29 265.842 424.39 268.566 415.62 274.014C406.85 279.329 399.94 287.302 394.89 297.933C389.841 308.43 387.316 321.386 387.316 336.8V350.155C387.316 364.772 389.774 377.263 394.691 387.628C399.74 397.992 406.85 405.965 416.018 411.546C425.187 416.994 436.017 419.719 448.508 419.719C457.278 419.719 465.118 418.39 472.028 415.732C478.938 413.074 484.718 409.42 489.369 404.769C494.02 400.118 497.342 394.803 499.335 388.824L499.933 387.03H534.017L533.619 389.023C531.891 397.527 528.569 405.5 523.652 412.942C518.869 420.383 512.69 426.961 505.115 432.674C497.541 438.255 488.904 442.641 479.204 445.83C469.503 448.886 459.006 450.414 447.711 450.414Z" stroke="white" stroke-width="4.01438" mask="url(#path-1-outside-1_35_37)"/>
<path d="M555.361 446.428V239.133H590.043V268.632H590.84C596.421 258.932 604.527 250.959 615.157 244.714C625.788 238.335 638.943 235.146 654.623 235.146C677.346 235.146 694.953 242.056 707.444 255.876C720.067 269.562 726.379 288.232 726.379 311.885V446.428H691.697V318.064C691.697 301.188 687.711 288.299 679.738 279.396C671.898 270.36 660.005 265.842 644.059 265.842C633.163 265.842 623.662 268.3 615.556 273.217C607.45 278 601.138 284.777 596.62 293.547C592.235 302.318 590.043 312.616 590.043 324.442V446.428H555.361Z" stroke="white" stroke-width="4.01438" mask="url(#path-1-outside-1_35_37)"/>
<path d="M827.85 450.414C811.639 450.414 797.62 447.823 785.793 442.641C773.967 437.458 764.598 430.216 757.689 420.914C750.912 411.613 746.792 400.783 745.331 388.425L745.131 386.631H779.813L780.212 388.624C782.338 398.989 787.321 407.095 795.161 412.942C803.001 418.655 813.964 421.512 828.049 421.512C837.484 421.512 845.523 420.316 852.167 417.925C858.812 415.4 863.927 411.879 867.515 407.361C871.103 402.71 872.897 397.262 872.897 391.016V390.817C872.897 383.375 870.638 377.396 866.12 372.878C861.602 368.36 853.43 364.639 841.603 361.716L808.715 353.743C795.693 350.554 784.863 346.434 776.226 341.385C767.721 336.202 761.343 329.891 757.091 322.449C752.838 315.008 750.712 306.304 750.712 296.338V296.139C750.712 284.179 753.902 273.615 760.28 264.446C766.791 255.278 775.761 248.102 787.188 242.92C798.749 237.737 811.971 235.146 826.854 235.146C842.002 235.146 855.157 237.87 866.319 243.318C877.614 248.634 886.451 255.942 892.829 265.244C899.34 274.413 902.995 284.777 903.792 296.338L903.991 298.929H870.904L870.704 297.534C869.376 287.435 864.924 279.329 857.35 273.217C849.908 267.104 839.743 264.048 826.854 264.048C818.482 264.048 811.24 265.31 805.127 267.835C799.015 270.36 794.298 273.947 790.976 278.598C787.786 283.116 786.192 288.432 786.192 294.544V294.743C786.192 299.394 787.255 303.646 789.381 307.5C791.64 311.221 795.161 314.476 799.945 317.267C804.729 320.057 810.908 322.383 818.482 324.243L851.37 332.216C872.365 337.266 887.115 344.242 895.62 353.145C904.124 361.915 908.376 373.675 908.376 388.425V388.624C908.376 400.716 904.855 411.413 897.812 420.715C890.902 430.017 881.335 437.325 869.11 442.641C857.018 447.823 843.264 450.414 827.85 450.414Z" stroke="white" stroke-width="4.01438" mask="url(#path-1-outside-1_35_37)"/>
<path d="M1013.44 450.414C993.636 450.414 976.56 446.029 962.209 437.259C947.991 428.489 937.028 416.131 929.321 400.185C921.747 384.106 917.96 365.237 917.96 343.577V343.378C917.96 321.984 921.813 303.181 929.52 286.97C937.228 270.625 948.057 257.935 962.01 248.899C975.963 239.73 992.373 235.146 1011.24 235.146C1030.11 235.146 1046.32 239.531 1059.88 248.301C1073.56 256.939 1084.06 269.097 1091.37 284.777C1098.68 300.457 1102.33 318.662 1102.33 339.392V352.148H935.301V325.04H1085.19L1067.65 350.155V336.8C1067.65 320.722 1065.19 307.434 1060.28 296.936C1055.49 286.438 1048.85 278.665 1040.34 273.615C1031.84 268.433 1022.07 265.842 1011.04 265.842C1000.01 265.842 990.114 268.566 981.344 274.014C972.574 279.329 965.664 287.302 960.615 297.933C955.565 308.43 953.04 321.386 953.04 336.8V350.155C953.04 364.772 955.499 377.263 960.415 387.628C965.465 397.992 972.574 405.965 981.743 411.546C990.912 416.994 1001.74 419.719 1014.23 419.719C1023 419.719 1030.84 418.39 1037.75 415.732C1044.66 413.074 1050.44 409.42 1055.09 404.769C1059.74 400.118 1063.07 394.803 1065.06 388.824L1065.66 387.03H1099.74L1099.34 389.023C1097.62 397.527 1094.29 405.5 1089.38 412.942C1084.59 420.383 1078.41 426.961 1070.84 432.674C1063.27 438.255 1054.63 442.641 1044.93 445.83C1035.23 448.886 1024.73 450.414 1013.44 450.414Z" stroke="white" stroke-width="4.01438" mask="url(#path-1-outside-1_35_37)"/>
</svg>
