<svg width="976" height="453" viewBox="0 0 976 453" fill="none" xmlns="http://www.w3.org/2000/svg">
<mask id="path-1-outside-1_35_36" maskUnits="userSpaceOnUse" x="-0.757324" y="-0.99292" width="977" height="454" fill="black">
<rect fill="white" x="-0.757324" y="-0.99292" width="977" height="454"/>
<path d="M173.247 447.029C139.733 447.029 110.751 441.672 86.3024 430.959C61.8537 420.245 42.487 405.274 28.2023 386.045C14.1923 366.815 5.67649 344.427 2.65473 318.879L2.24268 315.171H73.9407L74.7648 319.291C79.1601 340.718 89.4615 357.475 105.669 369.562C121.877 381.375 144.54 387.281 173.659 387.281C193.163 387.281 209.782 384.809 223.518 379.864C237.253 374.644 247.829 367.365 255.246 358.025C262.663 348.41 266.372 337.147 266.372 324.236V323.824C266.372 308.441 261.702 296.079 252.362 286.739C243.022 277.399 226.127 269.707 201.679 263.664L133.689 247.181C106.768 240.588 84.3795 232.073 66.5237 221.634C48.9425 210.92 35.7567 197.872 26.9661 182.488C18.1756 167.105 13.7803 149.112 13.7803 128.509V128.097C13.7803 103.373 20.3732 81.5342 33.559 62.5795C47.0196 43.6249 65.5622 28.7908 89.1868 18.0773C113.086 7.36383 140.419 2.00708 171.186 2.00708C202.503 2.00708 229.698 7.63853 252.774 18.9014C276.124 29.8896 294.391 44.9984 307.577 64.2278C321.038 83.1824 328.592 104.609 330.24 128.509L330.653 133.865H262.251L261.839 130.981C259.092 110.103 249.889 93.3465 234.231 80.7101C218.848 68.0736 197.833 61.7554 171.186 61.7554C153.88 61.7554 138.908 64.3651 126.272 69.5845C113.636 74.8039 103.884 82.2209 97.0159 91.8356C90.423 101.176 87.1265 112.164 87.1265 124.8V125.212C87.1265 134.827 89.3242 143.618 93.7194 151.584C98.3894 159.276 105.669 166.006 115.558 171.775C125.448 177.544 138.222 182.351 153.88 186.197L221.869 202.679C265.273 213.118 295.765 227.54 313.346 245.945C330.927 264.076 339.718 288.387 339.718 318.879V319.291C339.718 344.29 332.438 366.403 317.879 385.633C303.594 404.862 283.815 419.971 258.542 430.959C233.544 441.672 205.112 447.029 173.247 447.029Z"/>
<path d="M431.332 450.414C414.929 450.414 400.783 446.029 388.894 437.259C377.114 428.489 368.032 416.131 361.647 400.185C355.373 384.106 352.235 365.237 352.235 343.577V343.378C352.235 321.984 355.428 303.181 361.813 286.97C368.198 270.625 377.17 257.935 388.728 248.899C400.287 239.73 413.883 235.146 429.515 235.146C445.147 235.146 458.578 239.531 469.806 248.301C481.145 256.939 489.842 269.097 495.897 284.777C501.951 300.457 504.979 318.662 504.979 339.392V352.148H366.601V325.04H490.778L476.246 350.155V336.8C476.246 320.722 474.21 307.434 470.137 296.936C466.174 286.438 460.669 278.665 453.624 273.615C446.578 268.433 438.487 265.842 429.35 265.842C420.213 265.842 412.012 268.566 404.746 274.014C397.48 279.329 391.756 287.302 387.573 297.932C383.389 308.43 381.298 321.386 381.298 336.8V350.155C381.298 364.772 383.334 377.263 387.407 387.628C391.591 397.992 397.48 405.965 405.076 411.546C412.672 416.994 421.644 419.718 431.992 419.718C439.258 419.718 445.753 418.39 451.477 415.732C457.202 413.074 461.99 409.42 465.843 404.769C469.696 400.118 472.448 394.803 474.1 388.823L474.595 387.03H502.832L502.502 389.023C501.071 397.527 498.319 405.5 494.245 412.941C490.282 420.383 485.163 426.96 478.888 432.674C472.614 438.255 465.458 442.64 457.422 445.83C449.386 448.886 440.689 450.414 431.332 450.414Z"/>
<path d="M520.514 446.428V239.132H549.246V268.632H549.907C554.53 258.932 561.246 250.959 570.052 244.713C578.859 238.335 589.758 235.146 602.748 235.146C621.572 235.146 636.159 242.056 646.507 255.875C656.965 269.562 662.194 288.232 662.194 311.885V446.428H633.462V318.064C633.462 301.188 630.159 288.299 623.554 279.396C617.059 270.36 607.206 265.842 593.996 265.842C584.969 265.842 577.098 268.3 570.383 273.217C563.667 278 558.438 284.777 554.695 293.547C551.063 302.318 549.246 312.616 549.246 324.442V446.428H520.514Z"/>
<path d="M746.257 450.414C732.827 450.414 721.213 447.823 711.415 442.64C701.618 437.458 693.857 430.216 688.132 420.914C682.518 411.613 679.105 400.783 677.894 388.425L677.729 386.631H706.461L706.792 388.624C708.553 398.989 712.681 407.095 719.176 412.941C725.671 418.655 734.753 421.512 746.422 421.512C754.238 421.512 760.899 420.316 766.403 417.924C771.907 415.4 776.145 411.878 779.118 407.36C782.09 402.71 783.576 397.261 783.576 391.016V390.817C783.576 383.375 781.705 377.396 777.962 372.878C774.219 368.36 767.449 364.639 757.651 361.716L730.405 353.743C719.617 350.554 710.645 346.434 703.489 341.385C696.444 336.202 691.16 329.89 687.637 322.449C684.114 315.008 682.353 306.304 682.353 296.338V296.139C682.353 284.179 684.995 273.615 690.279 264.446C695.673 255.278 703.104 248.102 712.571 242.92C722.149 237.737 733.102 235.146 745.432 235.146C757.981 235.146 768.88 237.87 778.127 243.318C787.484 248.633 794.805 255.942 800.089 265.244C805.483 274.412 808.511 284.777 809.171 296.338L809.336 298.929H781.925L781.76 297.534C780.659 287.435 776.971 279.329 770.696 273.217C764.532 267.104 756.11 264.048 745.432 264.048C738.496 264.048 732.497 265.31 727.433 267.835C722.369 270.36 718.461 273.947 715.709 278.598C713.067 283.116 711.746 288.431 711.746 294.544V294.743C711.746 299.394 712.626 303.646 714.388 307.5C716.259 311.221 719.176 314.476 723.139 317.267C727.102 320.057 732.221 322.383 738.496 324.243L765.742 332.216C783.136 337.265 795.355 344.242 802.401 353.145C809.446 361.915 812.969 373.675 812.969 388.425V388.624C812.969 400.716 810.052 411.413 804.217 420.715C798.493 430.017 790.567 437.325 780.439 442.64C770.421 447.823 759.027 450.414 746.257 450.414Z"/>
<path d="M900.005 450.414C883.602 450.414 869.456 446.029 857.567 437.259C845.788 428.489 836.706 416.131 830.321 400.185C824.046 384.106 820.908 365.237 820.908 343.577V343.378C820.908 321.984 824.101 303.181 830.486 286.97C836.871 270.625 845.843 257.935 857.402 248.899C868.961 239.73 882.556 235.146 898.188 235.146C913.82 235.146 927.251 239.531 938.48 248.301C949.818 256.939 958.515 269.097 964.57 284.777C970.625 300.457 973.652 318.662 973.652 339.392V352.148H835.275V325.04H959.451L944.92 350.155V336.8C944.92 320.722 942.883 307.434 938.81 296.936C934.847 286.438 929.343 278.665 922.297 273.615C915.252 268.433 907.16 265.842 898.023 265.842C888.886 265.842 880.685 268.566 873.419 274.014C866.153 279.329 860.429 287.302 856.246 297.932C852.063 308.43 849.971 321.386 849.971 336.8V350.155C849.971 364.772 852.008 377.263 856.081 387.628C860.264 397.992 866.154 405.965 873.749 411.546C881.345 416.994 890.317 419.718 900.665 419.718C907.931 419.718 914.426 418.39 920.15 415.732C925.875 413.074 930.664 409.42 934.517 404.769C938.37 400.118 941.122 394.803 942.773 388.823L943.268 387.03H971.505L971.175 389.023C969.744 397.527 966.992 405.5 962.919 412.941C958.956 420.383 953.837 426.96 947.562 432.674C941.287 438.255 934.131 442.64 926.095 445.83C918.059 448.886 909.362 450.414 900.005 450.414Z"/>
<path d="M473.541 220.414C449.38 220.414 428.156 216.029 409.868 207.259C391.748 198.489 377.57 186.064 367.335 169.986C357.269 153.774 352.235 134.705 352.235 112.78V112.381C352.235 90.323 357.269 71.321 367.335 55.3752C377.57 39.2965 391.748 26.9385 409.868 18.3012C428.156 9.53105 449.296 5.14596 473.289 5.14596C497.45 5.14596 518.59 9.53105 536.71 18.3012C554.998 26.9385 569.176 39.2965 579.243 55.3752C589.477 71.321 594.595 90.323 594.595 112.381V112.78C594.595 134.838 589.477 153.907 579.243 169.986C569.176 186.064 555.082 198.489 536.962 207.259C518.842 216.029 497.701 220.414 473.541 220.414ZM473.792 189.718C489.228 189.718 502.567 186.729 513.808 180.749C525.217 174.636 534.026 165.866 540.234 154.438C546.609 142.878 549.797 128.992 549.797 112.78V112.381C549.797 96.1698 546.609 82.3501 540.234 70.9223C534.026 59.4945 525.133 50.7908 513.556 44.8111C502.147 38.8314 488.725 35.8416 473.289 35.8416C458.189 35.8416 444.85 38.8979 433.273 45.0104C421.864 50.9901 412.972 59.6938 406.596 71.1216C400.22 82.4166 397.033 96.1698 397.033 112.381V112.78C397.033 128.992 400.22 142.878 406.596 154.438C412.972 165.866 421.864 174.636 433.273 180.749C444.85 186.729 458.357 189.718 473.792 189.718Z"/>
<path d="M618.272 216.428V9.13241H662.063V44.2131H663.069C667.432 32.2538 674.982 22.7528 685.72 15.71C696.458 8.66732 709.209 5.14596 723.974 5.14596C727.833 5.14596 731.272 5.34528 734.292 5.74393C737.48 6.00969 739.913 6.27545 741.591 6.54122V40.2267C739.913 39.6952 736.893 39.2301 732.531 38.8314C728.336 38.4328 723.554 38.2335 718.185 38.2335C706.944 38.2335 697.045 40.2267 688.488 44.2131C680.099 48.1996 673.556 53.9799 668.858 61.5542C664.328 68.9955 662.063 77.965 662.063 88.4627V216.428H618.272Z"/>
<path d="M852.598 220.414C828.438 220.414 807.213 216.029 788.925 207.259C770.805 198.489 756.627 186.064 746.393 169.986C736.326 153.774 731.292 134.705 731.292 112.78V112.381C731.292 90.323 736.326 71.321 746.393 55.3752C756.627 39.2965 770.805 26.9385 788.925 18.3012C807.213 9.53105 828.354 5.14596 852.346 5.14596C876.507 5.14596 897.647 9.53105 915.768 18.3012C934.056 26.9385 948.233 39.2965 958.3 55.3752C968.535 71.321 973.652 90.323 973.652 112.381V112.78C973.652 134.838 968.535 153.907 958.3 169.986C948.233 186.064 934.139 198.489 916.019 207.259C897.899 216.029 876.758 220.414 852.598 220.414ZM852.85 189.718C868.286 189.718 881.624 186.729 892.865 180.749C904.275 174.636 913.083 165.866 919.291 154.438C925.667 142.878 928.854 128.992 928.854 112.78V112.381C928.854 96.1698 925.667 82.3501 919.291 70.9223C913.083 59.4945 904.191 50.7908 892.614 44.8111C881.205 38.8314 867.782 35.8416 852.346 35.8416C837.246 35.8416 823.908 38.8979 812.331 45.0104C800.922 50.9901 792.029 59.6938 785.653 71.1216C779.278 82.4166 776.09 96.1698 776.09 112.381V112.78C776.09 128.992 779.278 142.878 785.653 154.438C792.029 165.866 800.922 174.636 812.331 180.749C823.908 186.729 837.414 189.718 852.85 189.718Z"/>
</mask>
<path d="M173.247 447.029C139.733 447.029 110.751 441.672 86.3024 430.959C61.8537 420.245 42.487 405.274 28.2023 386.045C14.1923 366.815 5.67649 344.427 2.65473 318.879L2.24268 315.171H73.9407L74.7648 319.291C79.1601 340.718 89.4615 357.475 105.669 369.562C121.877 381.375 144.54 387.281 173.659 387.281C193.163 387.281 209.782 384.809 223.518 379.864C237.253 374.644 247.829 367.365 255.246 358.025C262.663 348.41 266.372 337.147 266.372 324.236V323.824C266.372 308.441 261.702 296.079 252.362 286.739C243.022 277.399 226.127 269.707 201.679 263.664L133.689 247.181C106.768 240.588 84.3795 232.073 66.5237 221.634C48.9425 210.92 35.7567 197.872 26.9661 182.488C18.1756 167.105 13.7803 149.112 13.7803 128.509V128.097C13.7803 103.373 20.3732 81.5342 33.559 62.5795C47.0196 43.6249 65.5622 28.7908 89.1868 18.0773C113.086 7.36383 140.419 2.00708 171.186 2.00708C202.503 2.00708 229.698 7.63853 252.774 18.9014C276.124 29.8896 294.391 44.9984 307.577 64.2278C321.038 83.1824 328.592 104.609 330.24 128.509L330.653 133.865H262.251L261.839 130.981C259.092 110.103 249.889 93.3465 234.231 80.7101C218.848 68.0736 197.833 61.7554 171.186 61.7554C153.88 61.7554 138.908 64.3651 126.272 69.5845C113.636 74.8039 103.884 82.2209 97.0159 91.8356C90.423 101.176 87.1265 112.164 87.1265 124.8V125.212C87.1265 134.827 89.3242 143.618 93.7194 151.584C98.3894 159.276 105.669 166.006 115.558 171.775C125.448 177.544 138.222 182.351 153.88 186.197L221.869 202.679C265.273 213.118 295.765 227.54 313.346 245.945C330.927 264.076 339.718 288.387 339.718 318.879V319.291C339.718 344.29 332.438 366.403 317.879 385.633C303.594 404.862 283.815 419.971 258.542 430.959C233.544 441.672 205.112 447.029 173.247 447.029Z" fill="white"/>
<path d="M431.332 450.414C414.929 450.414 400.783 446.029 388.894 437.259C377.114 428.489 368.032 416.131 361.647 400.185C355.373 384.106 352.235 365.237 352.235 343.577V343.378C352.235 321.984 355.428 303.181 361.813 286.97C368.198 270.625 377.17 257.935 388.728 248.899C400.287 239.73 413.883 235.146 429.515 235.146C445.147 235.146 458.578 239.531 469.806 248.301C481.145 256.939 489.842 269.097 495.897 284.777C501.951 300.457 504.979 318.662 504.979 339.392V352.148H366.601V325.04H490.778L476.246 350.155V336.8C476.246 320.722 474.21 307.434 470.137 296.936C466.174 286.438 460.669 278.665 453.624 273.615C446.578 268.433 438.487 265.842 429.35 265.842C420.213 265.842 412.012 268.566 404.746 274.014C397.48 279.329 391.756 287.302 387.573 297.932C383.389 308.43 381.298 321.386 381.298 336.8V350.155C381.298 364.772 383.334 377.263 387.407 387.628C391.591 397.992 397.48 405.965 405.076 411.546C412.672 416.994 421.644 419.718 431.992 419.718C439.258 419.718 445.753 418.39 451.477 415.732C457.202 413.074 461.99 409.42 465.843 404.769C469.696 400.118 472.448 394.803 474.1 388.823L474.595 387.03H502.832L502.502 389.023C501.071 397.527 498.319 405.5 494.245 412.941C490.282 420.383 485.163 426.96 478.888 432.674C472.614 438.255 465.458 442.64 457.422 445.83C449.386 448.886 440.689 450.414 431.332 450.414Z" fill="white"/>
<path d="M520.514 446.428V239.132H549.246V268.632H549.907C554.53 258.932 561.246 250.959 570.052 244.713C578.859 238.335 589.758 235.146 602.748 235.146C621.572 235.146 636.159 242.056 646.507 255.875C656.965 269.562 662.194 288.232 662.194 311.885V446.428H633.462V318.064C633.462 301.188 630.159 288.299 623.554 279.396C617.059 270.36 607.206 265.842 593.996 265.842C584.969 265.842 577.098 268.3 570.383 273.217C563.667 278 558.438 284.777 554.695 293.547C551.063 302.318 549.246 312.616 549.246 324.442V446.428H520.514Z" fill="white"/>
<path d="M746.257 450.414C732.827 450.414 721.213 447.823 711.415 442.64C701.618 437.458 693.857 430.216 688.132 420.914C682.518 411.613 679.105 400.783 677.894 388.425L677.729 386.631H706.461L706.792 388.624C708.553 398.989 712.681 407.095 719.176 412.941C725.671 418.655 734.753 421.512 746.422 421.512C754.238 421.512 760.899 420.316 766.403 417.924C771.907 415.4 776.145 411.878 779.118 407.36C782.09 402.71 783.576 397.261 783.576 391.016V390.817C783.576 383.375 781.705 377.396 777.962 372.878C774.219 368.36 767.449 364.639 757.651 361.716L730.405 353.743C719.617 350.554 710.645 346.434 703.489 341.385C696.444 336.202 691.16 329.89 687.637 322.449C684.114 315.008 682.353 306.304 682.353 296.338V296.139C682.353 284.179 684.995 273.615 690.279 264.446C695.673 255.278 703.104 248.102 712.571 242.92C722.149 237.737 733.102 235.146 745.432 235.146C757.981 235.146 768.88 237.87 778.127 243.318C787.484 248.633 794.805 255.942 800.089 265.244C805.483 274.412 808.511 284.777 809.171 296.338L809.336 298.929H781.925L781.76 297.534C780.659 287.435 776.971 279.329 770.696 273.217C764.532 267.104 756.11 264.048 745.432 264.048C738.496 264.048 732.497 265.31 727.433 267.835C722.369 270.36 718.461 273.947 715.709 278.598C713.067 283.116 711.746 288.431 711.746 294.544V294.743C711.746 299.394 712.626 303.646 714.388 307.5C716.259 311.221 719.176 314.476 723.139 317.267C727.102 320.057 732.221 322.383 738.496 324.243L765.742 332.216C783.136 337.265 795.355 344.242 802.401 353.145C809.446 361.915 812.969 373.675 812.969 388.425V388.624C812.969 400.716 810.052 411.413 804.217 420.715C798.493 430.017 790.567 437.325 780.439 442.64C770.421 447.823 759.027 450.414 746.257 450.414Z" fill="white"/>
<path d="M900.005 450.414C883.602 450.414 869.456 446.029 857.567 437.259C845.788 428.489 836.706 416.131 830.321 400.185C824.046 384.106 820.908 365.237 820.908 343.577V343.378C820.908 321.984 824.101 303.181 830.486 286.97C836.871 270.625 845.843 257.935 857.402 248.899C868.961 239.73 882.556 235.146 898.188 235.146C913.82 235.146 927.251 239.531 938.48 248.301C949.818 256.939 958.515 269.097 964.57 284.777C970.625 300.457 973.652 318.662 973.652 339.392V352.148H835.275V325.04H959.451L944.92 350.155V336.8C944.92 320.722 942.883 307.434 938.81 296.936C934.847 286.438 929.343 278.665 922.297 273.615C915.252 268.433 907.16 265.842 898.023 265.842C888.886 265.842 880.685 268.566 873.419 274.014C866.153 279.329 860.429 287.302 856.246 297.932C852.063 308.43 849.971 321.386 849.971 336.8V350.155C849.971 364.772 852.008 377.263 856.081 387.628C860.264 397.992 866.154 405.965 873.749 411.546C881.345 416.994 890.317 419.718 900.665 419.718C907.931 419.718 914.426 418.39 920.15 415.732C925.875 413.074 930.664 409.42 934.517 404.769C938.37 400.118 941.122 394.803 942.773 388.823L943.268 387.03H971.505L971.175 389.023C969.744 397.527 966.992 405.5 962.919 412.941C958.956 420.383 953.837 426.96 947.562 432.674C941.287 438.255 934.131 442.64 926.095 445.83C918.059 448.886 909.362 450.414 900.005 450.414Z" fill="white"/>
<path d="M473.541 220.414C449.38 220.414 428.156 216.029 409.868 207.259C391.748 198.489 377.57 186.064 367.335 169.986C357.269 153.774 352.235 134.705 352.235 112.78V112.381C352.235 90.323 357.269 71.321 367.335 55.3752C377.57 39.2965 391.748 26.9385 409.868 18.3012C428.156 9.53105 449.296 5.14596 473.289 5.14596C497.45 5.14596 518.59 9.53105 536.71 18.3012C554.998 26.9385 569.176 39.2965 579.243 55.3752C589.477 71.321 594.595 90.323 594.595 112.381V112.78C594.595 134.838 589.477 153.907 579.243 169.986C569.176 186.064 555.082 198.489 536.962 207.259C518.842 216.029 497.701 220.414 473.541 220.414ZM473.792 189.718C489.228 189.718 502.567 186.729 513.808 180.749C525.217 174.636 534.026 165.866 540.234 154.438C546.609 142.878 549.797 128.992 549.797 112.78V112.381C549.797 96.1698 546.609 82.3501 540.234 70.9223C534.026 59.4945 525.133 50.7908 513.556 44.8111C502.147 38.8314 488.725 35.8416 473.289 35.8416C458.189 35.8416 444.85 38.8979 433.273 45.0104C421.864 50.9901 412.972 59.6938 406.596 71.1216C400.22 82.4166 397.033 96.1698 397.033 112.381V112.78C397.033 128.992 400.22 142.878 406.596 154.438C412.972 165.866 421.864 174.636 433.273 180.749C444.85 186.729 458.357 189.718 473.792 189.718Z" fill="white"/>
<path d="M618.272 216.428V9.13241H662.063V44.2131H663.069C667.432 32.2538 674.982 22.7528 685.72 15.71C696.458 8.66732 709.209 5.14596 723.974 5.14596C727.833 5.14596 731.272 5.34528 734.292 5.74393C737.48 6.00969 739.913 6.27545 741.591 6.54122V40.2267C739.913 39.6952 736.893 39.2301 732.531 38.8314C728.336 38.4328 723.554 38.2335 718.185 38.2335C706.944 38.2335 697.045 40.2267 688.488 44.2131C680.099 48.1996 673.556 53.9799 668.858 61.5542C664.328 68.9955 662.063 77.965 662.063 88.4627V216.428H618.272Z" fill="white"/>
<path d="M852.598 220.414C828.438 220.414 807.213 216.029 788.925 207.259C770.805 198.489 756.627 186.064 746.393 169.986C736.326 153.774 731.292 134.705 731.292 112.78V112.381C731.292 90.323 736.326 71.321 746.393 55.3752C756.627 39.2965 770.805 26.9385 788.925 18.3012C807.213 9.53105 828.354 5.14596 852.346 5.14596C876.507 5.14596 897.647 9.53105 915.768 18.3012C934.056 26.9385 948.233 39.2965 958.3 55.3752C968.535 71.321 973.652 90.323 973.652 112.381V112.78C973.652 134.838 968.535 153.907 958.3 169.986C948.233 186.064 934.139 198.489 916.019 207.259C897.899 216.029 876.758 220.414 852.598 220.414ZM852.85 189.718C868.286 189.718 881.624 186.729 892.865 180.749C904.275 174.636 913.083 165.866 919.291 154.438C925.667 142.878 928.854 128.992 928.854 112.78V112.381C928.854 96.1698 925.667 82.3501 919.291 70.9223C913.083 59.4945 904.191 50.7908 892.614 44.8111C881.205 38.8314 867.782 35.8416 852.346 35.8416C837.246 35.8416 823.908 38.8979 812.331 45.0104C800.922 50.9901 792.029 59.6938 785.653 71.1216C779.278 82.4166 776.09 96.1698 776.09 112.381V112.78C776.09 128.992 779.278 142.878 785.653 154.438C792.029 165.866 800.922 174.636 812.331 180.749C823.908 186.729 837.414 189.718 852.85 189.718Z" fill="white"/>
<path d="M173.247 447.029C139.733 447.029 110.751 441.672 86.3024 430.959C61.8537 420.245 42.487 405.274 28.2023 386.045C14.1923 366.815 5.67649 344.427 2.65473 318.879L2.24268 315.171H73.9407L74.7648 319.291C79.1601 340.718 89.4615 357.475 105.669 369.562C121.877 381.375 144.54 387.281 173.659 387.281C193.163 387.281 209.782 384.809 223.518 379.864C237.253 374.644 247.829 367.365 255.246 358.025C262.663 348.41 266.372 337.147 266.372 324.236V323.824C266.372 308.441 261.702 296.079 252.362 286.739C243.022 277.399 226.127 269.707 201.679 263.664L133.689 247.181C106.768 240.588 84.3795 232.073 66.5237 221.634C48.9425 210.92 35.7567 197.872 26.9661 182.488C18.1756 167.105 13.7803 149.112 13.7803 128.509V128.097C13.7803 103.373 20.3732 81.5342 33.559 62.5795C47.0196 43.6249 65.5622 28.7908 89.1868 18.0773C113.086 7.36383 140.419 2.00708 171.186 2.00708C202.503 2.00708 229.698 7.63853 252.774 18.9014C276.124 29.8896 294.391 44.9984 307.577 64.2278C321.038 83.1824 328.592 104.609 330.24 128.509L330.653 133.865H262.251L261.839 130.981C259.092 110.103 249.889 93.3465 234.231 80.7101C218.848 68.0736 197.833 61.7554 171.186 61.7554C153.88 61.7554 138.908 64.3651 126.272 69.5845C113.636 74.8039 103.884 82.2209 97.0159 91.8356C90.423 101.176 87.1265 112.164 87.1265 124.8V125.212C87.1265 134.827 89.3242 143.618 93.7194 151.584C98.3894 159.276 105.669 166.006 115.558 171.775C125.448 177.544 138.222 182.351 153.88 186.197L221.869 202.679C265.273 213.118 295.765 227.54 313.346 245.945C330.927 264.076 339.718 288.387 339.718 318.879V319.291C339.718 344.29 332.438 366.403 317.879 385.633C303.594 404.862 283.815 419.971 258.542 430.959C233.544 441.672 205.112 447.029 173.247 447.029Z" stroke="white" stroke-width="4.01438" mask="url(#path-1-outside-1_35_36)"/>
<path d="M431.332 450.414C414.929 450.414 400.783 446.029 388.894 437.259C377.114 428.489 368.032 416.131 361.647 400.185C355.373 384.106 352.235 365.237 352.235 343.577V343.378C352.235 321.984 355.428 303.181 361.813 286.97C368.198 270.625 377.17 257.935 388.728 248.899C400.287 239.73 413.883 235.146 429.515 235.146C445.147 235.146 458.578 239.531 469.806 248.301C481.145 256.939 489.842 269.097 495.897 284.777C501.951 300.457 504.979 318.662 504.979 339.392V352.148H366.601V325.04H490.778L476.246 350.155V336.8C476.246 320.722 474.21 307.434 470.137 296.936C466.174 286.438 460.669 278.665 453.624 273.615C446.578 268.433 438.487 265.842 429.35 265.842C420.213 265.842 412.012 268.566 404.746 274.014C397.48 279.329 391.756 287.302 387.573 297.932C383.389 308.43 381.298 321.386 381.298 336.8V350.155C381.298 364.772 383.334 377.263 387.407 387.628C391.591 397.992 397.48 405.965 405.076 411.546C412.672 416.994 421.644 419.718 431.992 419.718C439.258 419.718 445.753 418.39 451.477 415.732C457.202 413.074 461.99 409.42 465.843 404.769C469.696 400.118 472.448 394.803 474.1 388.823L474.595 387.03H502.832L502.502 389.023C501.071 397.527 498.319 405.5 494.245 412.941C490.282 420.383 485.163 426.96 478.888 432.674C472.614 438.255 465.458 442.64 457.422 445.83C449.386 448.886 440.689 450.414 431.332 450.414Z" stroke="white" stroke-width="4.01438" mask="url(#path-1-outside-1_35_36)"/>
<path d="M520.514 446.428V239.132H549.246V268.632H549.907C554.53 258.932 561.246 250.959 570.052 244.713C578.859 238.335 589.758 235.146 602.748 235.146C621.572 235.146 636.159 242.056 646.507 255.875C656.965 269.562 662.194 288.232 662.194 311.885V446.428H633.462V318.064C633.462 301.188 630.159 288.299 623.554 279.396C617.059 270.36 607.206 265.842 593.996 265.842C584.969 265.842 577.098 268.3 570.383 273.217C563.667 278 558.438 284.777 554.695 293.547C551.063 302.318 549.246 312.616 549.246 324.442V446.428H520.514Z" stroke="white" stroke-width="4.01438" mask="url(#path-1-outside-1_35_36)"/>
<path d="M746.257 450.414C732.827 450.414 721.213 447.823 711.415 442.64C701.618 437.458 693.857 430.216 688.132 420.914C682.518 411.613 679.105 400.783 677.894 388.425L677.729 386.631H706.461L706.792 388.624C708.553 398.989 712.681 407.095 719.176 412.941C725.671 418.655 734.753 421.512 746.422 421.512C754.238 421.512 760.899 420.316 766.403 417.924C771.907 415.4 776.145 411.878 779.118 407.36C782.09 402.71 783.576 397.261 783.576 391.016V390.817C783.576 383.375 781.705 377.396 777.962 372.878C774.219 368.36 767.449 364.639 757.651 361.716L730.405 353.743C719.617 350.554 710.645 346.434 703.489 341.385C696.444 336.202 691.16 329.89 687.637 322.449C684.114 315.008 682.353 306.304 682.353 296.338V296.139C682.353 284.179 684.995 273.615 690.279 264.446C695.673 255.278 703.104 248.102 712.571 242.92C722.149 237.737 733.102 235.146 745.432 235.146C757.981 235.146 768.88 237.87 778.127 243.318C787.484 248.633 794.805 255.942 800.089 265.244C805.483 274.412 808.511 284.777 809.171 296.338L809.336 298.929H781.925L781.76 297.534C780.659 287.435 776.971 279.329 770.696 273.217C764.532 267.104 756.11 264.048 745.432 264.048C738.496 264.048 732.497 265.31 727.433 267.835C722.369 270.36 718.461 273.947 715.709 278.598C713.067 283.116 711.746 288.431 711.746 294.544V294.743C711.746 299.394 712.626 303.646 714.388 307.5C716.259 311.221 719.176 314.476 723.139 317.267C727.102 320.057 732.221 322.383 738.496 324.243L765.742 332.216C783.136 337.265 795.355 344.242 802.401 353.145C809.446 361.915 812.969 373.675 812.969 388.425V388.624C812.969 400.716 810.052 411.413 804.217 420.715C798.493 430.017 790.567 437.325 780.439 442.64C770.421 447.823 759.027 450.414 746.257 450.414Z" stroke="white" stroke-width="4.01438" mask="url(#path-1-outside-1_35_36)"/>
<path d="M900.005 450.414C883.602 450.414 869.456 446.029 857.567 437.259C845.788 428.489 836.706 416.131 830.321 400.185C824.046 384.106 820.908 365.237 820.908 343.577V343.378C820.908 321.984 824.101 303.181 830.486 286.97C836.871 270.625 845.843 257.935 857.402 248.899C868.961 239.73 882.556 235.146 898.188 235.146C913.82 235.146 927.251 239.531 938.48 248.301C949.818 256.939 958.515 269.097 964.57 284.777C970.625 300.457 973.652 318.662 973.652 339.392V352.148H835.275V325.04H959.451L944.92 350.155V336.8C944.92 320.722 942.883 307.434 938.81 296.936C934.847 286.438 929.343 278.665 922.297 273.615C915.252 268.433 907.16 265.842 898.023 265.842C888.886 265.842 880.685 268.566 873.419 274.014C866.153 279.329 860.429 287.302 856.246 297.932C852.063 308.43 849.971 321.386 849.971 336.8V350.155C849.971 364.772 852.008 377.263 856.081 387.628C860.264 397.992 866.154 405.965 873.749 411.546C881.345 416.994 890.317 419.718 900.665 419.718C907.931 419.718 914.426 418.39 920.15 415.732C925.875 413.074 930.664 409.42 934.517 404.769C938.37 400.118 941.122 394.803 942.773 388.823L943.268 387.03H971.505L971.175 389.023C969.744 397.527 966.992 405.5 962.919 412.941C958.956 420.383 953.837 426.96 947.562 432.674C941.287 438.255 934.131 442.64 926.095 445.83C918.059 448.886 909.362 450.414 900.005 450.414Z" stroke="white" stroke-width="4.01438" mask="url(#path-1-outside-1_35_36)"/>
<path d="M473.541 220.414C449.38 220.414 428.156 216.029 409.868 207.259C391.748 198.489 377.57 186.064 367.335 169.986C357.269 153.774 352.235 134.705 352.235 112.78V112.381C352.235 90.323 357.269 71.321 367.335 55.3752C377.57 39.2965 391.748 26.9385 409.868 18.3012C428.156 9.53105 449.296 5.14596 473.289 5.14596C497.45 5.14596 518.59 9.53105 536.71 18.3012C554.998 26.9385 569.176 39.2965 579.243 55.3752C589.477 71.321 594.595 90.323 594.595 112.381V112.78C594.595 134.838 589.477 153.907 579.243 169.986C569.176 186.064 555.082 198.489 536.962 207.259C518.842 216.029 497.701 220.414 473.541 220.414ZM473.792 189.718C489.228 189.718 502.567 186.729 513.808 180.749C525.217 174.636 534.026 165.866 540.234 154.438C546.609 142.878 549.797 128.992 549.797 112.78V112.381C549.797 96.1698 546.609 82.3501 540.234 70.9223C534.026 59.4945 525.133 50.7908 513.556 44.8111C502.147 38.8314 488.725 35.8416 473.289 35.8416C458.189 35.8416 444.85 38.8979 433.273 45.0104C421.864 50.9901 412.972 59.6938 406.596 71.1216C400.22 82.4166 397.033 96.1698 397.033 112.381V112.78C397.033 128.992 400.22 142.878 406.596 154.438C412.972 165.866 421.864 174.636 433.273 180.749C444.85 186.729 458.357 189.718 473.792 189.718Z" stroke="white" stroke-width="4.01438" mask="url(#path-1-outside-1_35_36)"/>
<path d="M618.272 216.428V9.13241H662.063V44.2131H663.069C667.432 32.2538 674.982 22.7528 685.72 15.71C696.458 8.66732 709.209 5.14596 723.974 5.14596C727.833 5.14596 731.272 5.34528 734.292 5.74393C737.48 6.00969 739.913 6.27545 741.591 6.54122V40.2267C739.913 39.6952 736.893 39.2301 732.531 38.8314C728.336 38.4328 723.554 38.2335 718.185 38.2335C706.944 38.2335 697.045 40.2267 688.488 44.2131C680.099 48.1996 673.556 53.9799 668.858 61.5542C664.328 68.9955 662.063 77.965 662.063 88.4627V216.428H618.272Z" stroke="white" stroke-width="4.01438" mask="url(#path-1-outside-1_35_36)"/>
<path d="M852.598 220.414C828.438 220.414 807.213 216.029 788.925 207.259C770.805 198.489 756.627 186.064 746.393 169.986C736.326 153.774 731.292 134.705 731.292 112.78V112.381C731.292 90.323 736.326 71.321 746.393 55.3752C756.627 39.2965 770.805 26.9385 788.925 18.3012C807.213 9.53105 828.354 5.14596 852.346 5.14596C876.507 5.14596 897.647 9.53105 915.768 18.3012C934.056 26.9385 948.233 39.2965 958.3 55.3752C968.535 71.321 973.652 90.323 973.652 112.381V112.78C973.652 134.838 968.535 153.907 958.3 169.986C948.233 186.064 934.139 198.489 916.019 207.259C897.899 216.029 876.758 220.414 852.598 220.414ZM852.85 189.718C868.286 189.718 881.624 186.729 892.865 180.749C904.275 174.636 913.083 165.866 919.291 154.438C925.667 142.878 928.854 128.992 928.854 112.78V112.381C928.854 96.1698 925.667 82.3501 919.291 70.9223C913.083 59.4945 904.191 50.7908 892.614 44.8111C881.205 38.8314 867.782 35.8416 852.346 35.8416C837.246 35.8416 823.908 38.8979 812.331 45.0104C800.922 50.9901 792.029 59.6938 785.653 71.1216C779.278 82.4166 776.09 96.1698 776.09 112.381V112.78C776.09 128.992 779.278 142.878 785.653 154.438C792.029 165.866 800.922 174.636 812.331 180.749C823.908 186.729 837.414 189.718 852.85 189.718Z" stroke="white" stroke-width="4.01438" mask="url(#path-1-outside-1_35_36)"/>
</svg>
