<svg width="1105" height="533" viewBox="0 0 1105 533" fill="none" xmlns="http://www.w3.org/2000/svg">
<path d="M98.9889 257.61C79.5887 257.61 62.8123 254.509 48.6596 248.307C34.507 242.105 23.2962 233.439 15.0272 222.308C6.9173 211.176 1.98773 198.216 0.238528 183.428L0 181.281H41.5038L41.9809 183.666C44.5251 196.07 50.4883 205.77 59.8704 212.767C69.2525 219.604 82.3715 223.023 99.2275 223.023C110.518 223.023 120.138 221.592 128.089 218.73C136.04 215.708 142.162 211.494 146.456 206.088C150.749 200.522 152.896 194.002 152.896 186.529V186.29C152.896 177.385 150.193 170.229 144.786 164.823C139.38 159.416 129.6 154.963 115.447 151.465L76.0903 141.924C60.5065 138.107 47.5465 133.178 37.2103 127.135C27.0331 120.933 19.4002 113.38 14.3117 104.475C9.22307 95.5701 6.67877 85.1543 6.67877 73.228V72.9894C6.67877 58.6778 10.4952 46.0358 18.1281 35.0636C25.92 24.0913 36.6537 15.5043 50.3293 9.30258C64.1639 3.10086 79.9863 0 97.7963 0C115.924 0 131.667 3.25988 145.025 9.77963C158.541 16.1404 169.116 24.8864 176.749 36.0177C184.541 46.9899 188.914 59.3934 189.868 73.228L190.106 76.3288H150.511L150.272 74.6591C148.682 62.5737 143.355 52.8736 134.291 45.5588C125.386 38.2439 113.221 34.5865 97.7963 34.5865C87.7782 34.5865 79.1116 36.0972 71.7968 39.1185C64.482 42.1399 58.8368 46.4334 54.8613 51.999C51.0449 57.4056 49.1367 63.7664 49.1367 71.0812V71.3197C49.1367 76.8854 50.4088 81.974 52.9531 86.5855C55.6564 91.038 59.8704 94.934 65.5951 98.2734C71.3197 101.613 78.7141 104.396 87.7782 106.622L127.135 116.163C152.26 122.206 169.911 130.554 180.088 141.208C190.265 151.704 195.354 165.777 195.354 183.428V183.666C195.354 198.137 191.14 210.938 182.712 222.069C174.443 233.2 162.994 241.946 148.364 248.307C133.893 254.509 117.435 257.61 98.9889 257.61Z" fill="black"/>
<path d="M321.793 257.61C298.894 257.61 278.778 252.362 261.445 241.867C244.271 231.372 230.834 216.504 221.134 197.262C211.593 177.862 206.822 155.043 206.822 128.805V128.328C206.822 101.931 211.593 79.1912 221.134 60.109C230.834 40.8677 244.271 26.079 261.445 15.7428C278.778 5.24761 298.815 0 321.554 0C344.453 0 364.489 5.24761 381.663 15.7428C398.996 26.079 412.433 40.8677 421.974 60.109C431.674 79.1912 436.525 101.931 436.525 128.328V128.805C436.525 155.202 431.674 178.021 421.974 197.262C412.433 216.504 399.076 231.372 381.902 241.867C364.728 252.362 344.691 257.61 321.793 257.61ZM322.031 220.877C336.661 220.877 349.303 217.299 359.957 210.143C370.77 202.828 379.119 192.333 385.003 178.657C391.045 164.823 394.067 148.205 394.067 128.805V128.328C394.067 108.928 391.045 92.3897 385.003 78.7141C379.119 65.0385 370.691 54.6228 359.719 47.467C348.905 40.3112 336.184 36.7332 321.554 36.7332C307.243 36.7332 294.601 40.3907 283.628 47.7055C272.815 54.8613 264.387 65.277 258.344 78.9526C252.302 92.4692 249.28 108.928 249.28 128.328V128.805C249.28 148.205 252.302 164.823 258.344 178.657C264.387 192.333 272.815 202.828 283.628 210.143C294.601 217.299 307.402 220.877 322.031 220.877Z" fill="black"/>
<path d="M458.965 252.839V4.77055H500.469V46.7514H501.423C505.558 32.4398 512.713 21.0699 522.891 12.642C533.068 4.21399 545.153 0 559.147 0C562.804 0 566.064 0.238528 568.926 0.715583C571.948 1.03362 574.254 1.35166 575.844 1.66969V41.9809C574.254 41.3448 571.391 40.7882 567.257 40.3112C563.281 39.8341 558.749 39.5956 553.661 39.5956C543.006 39.5956 533.624 41.9809 525.514 46.7514C517.563 51.522 511.362 58.4393 506.909 67.5033C502.616 76.4083 500.469 87.1421 500.469 99.7045V252.839H458.965Z" fill="black"/>
<path d="M681.053 257.61C658.155 257.61 638.039 252.362 620.706 241.867C603.532 231.372 590.095 216.504 580.395 197.262C570.854 177.862 566.083 155.043 566.083 128.805V128.328C566.083 101.931 570.854 79.1912 580.395 60.109C590.095 40.8677 603.532 26.079 620.706 15.7428C638.039 5.24761 658.075 0 680.815 0C703.714 0 723.75 5.24761 740.924 15.7428C758.257 26.079 771.694 40.8677 781.235 60.109C790.935 79.1912 795.785 101.931 795.785 128.328V128.805C795.785 155.202 790.935 178.021 781.235 197.262C771.694 216.504 758.336 231.372 741.162 241.867C723.988 252.362 703.952 257.61 681.053 257.61ZM681.292 220.877C695.922 220.877 708.564 217.299 719.218 210.143C730.031 202.828 738.38 192.333 744.263 178.657C750.306 164.823 753.327 148.205 753.327 128.805V128.328C753.327 108.928 750.306 92.3897 744.263 78.7141C738.38 65.0385 729.952 54.6228 718.979 47.467C708.166 40.3112 695.445 36.7332 680.815 36.7332C666.503 36.7332 653.861 40.3907 642.889 47.7055C632.076 54.8613 623.648 65.277 617.605 78.9526C611.562 92.4692 608.541 108.928 608.541 128.328V128.805C608.541 148.205 611.562 164.823 617.605 178.657C623.648 192.333 632.076 202.828 642.889 210.143C653.861 217.299 666.662 220.877 681.292 220.877Z" fill="black"/>
<path d="M98.9889 532.61C79.5887 532.61 62.8123 529.509 48.6596 523.307C34.507 517.105 23.2962 508.439 15.0272 497.308C6.9173 486.176 1.98773 473.216 0.238528 458.428L0 456.281H41.5038L41.9809 458.666C44.5251 471.07 50.4883 480.77 59.8704 487.767C69.2525 494.604 82.3715 498.023 99.2275 498.023C110.518 498.023 120.138 496.592 128.089 493.73C136.04 490.708 142.162 486.494 146.456 481.088C150.749 475.522 152.896 469.002 152.896 461.529V461.29C152.896 452.385 150.193 445.229 144.786 439.823C139.38 434.416 129.6 429.963 115.447 426.465L76.0903 416.924C60.5065 413.107 47.5465 408.178 37.2103 402.135C27.0331 395.933 19.4002 388.38 14.3117 379.475C9.22307 370.57 6.67877 360.154 6.67877 348.228V347.989C6.67877 333.678 10.4952 321.036 18.1281 310.064C25.92 299.091 36.6537 290.504 50.3293 284.303C64.1639 278.101 79.9863 275 97.7963 275C115.924 275 131.667 278.26 145.025 284.78C158.541 291.14 169.116 299.886 176.749 311.018C184.541 321.99 188.914 334.393 189.868 348.228L190.106 351.329H150.511L150.272 349.659C148.682 337.574 143.355 327.874 134.291 320.559C125.386 313.244 113.221 309.586 97.7963 309.586C87.7782 309.586 79.1116 311.097 71.7968 314.119C64.482 317.14 58.8368 321.433 54.8613 326.999C51.0449 332.406 49.1367 338.766 49.1367 346.081V346.32C49.1367 351.885 50.4088 356.974 52.9531 361.586C55.6564 366.038 59.8704 369.934 65.5951 373.273C71.3197 376.613 78.7141 379.396 87.7782 381.622L127.135 391.163C152.26 397.206 169.911 405.554 180.088 416.208C190.265 426.704 195.354 440.777 195.354 458.428V458.666C195.354 473.137 191.14 485.938 182.712 497.069C174.443 508.2 162.994 516.946 148.364 523.307C133.893 529.509 117.435 532.61 98.9889 532.61Z" fill="black"/>
<path d="M321.077 532.61C297.383 532.61 276.95 527.362 259.776 516.867C242.761 506.372 229.642 491.583 220.419 472.501C211.355 453.26 206.822 430.679 206.822 404.759V404.52C206.822 378.919 211.434 356.417 220.657 337.017C229.88 317.458 242.84 302.272 259.537 291.458C276.234 280.486 295.873 275 318.453 275C341.034 275 360.434 280.248 376.654 290.743C393.033 301.079 405.595 315.629 414.341 334.393C423.088 353.158 427.461 374.943 427.461 399.75V415.016H227.574V382.576H406.947L385.957 412.63V396.649C385.957 377.408 383.015 361.506 377.131 348.944C371.407 336.381 363.456 327.079 353.278 321.036C343.101 314.834 331.413 311.733 318.215 311.733C305.016 311.733 293.169 314.993 282.674 321.513C272.179 327.874 263.91 337.415 257.867 350.136C251.825 362.699 248.803 378.203 248.803 396.649V412.63C248.803 430.122 251.745 445.07 257.629 457.474C263.672 469.877 272.179 479.418 283.151 486.097C294.124 492.617 307.084 495.877 322.031 495.877C332.527 495.877 341.909 494.286 350.178 491.106C358.447 487.926 365.364 483.553 370.929 477.987C376.495 472.421 380.471 466.061 382.856 458.905L383.571 456.758H424.36L423.883 459.143C421.815 469.32 417.84 478.862 411.956 487.767C406.232 496.672 398.837 504.543 389.773 511.381C380.709 518.06 370.373 523.307 358.765 527.124C347.156 530.781 334.594 532.61 321.077 532.61Z" fill="black"/>
<path d="M449.901 527.839V279.771H491.405V315.073H492.359C499.038 303.464 508.738 293.923 521.459 286.449C534.181 278.816 549.924 275 568.688 275C595.88 275 616.95 283.269 631.898 299.807C647.005 316.186 654.558 338.528 654.558 366.833V527.839H613.054V374.227C613.054 354.032 608.284 338.607 598.742 327.953C589.36 317.14 575.128 311.733 556.046 311.733C543.006 311.733 531.637 314.675 521.937 320.559C512.236 326.283 504.683 334.393 499.276 344.889C494.029 355.384 491.405 367.708 491.405 381.86V527.839H449.901Z" fill="black"/>
<path d="M775.987 532.61C756.587 532.61 739.811 529.509 725.658 523.307C711.506 517.105 700.295 508.439 692.026 497.308C683.916 486.176 678.986 473.216 677.237 458.428L676.999 456.281H718.502L718.979 458.666C721.524 471.07 727.487 480.77 736.869 487.767C746.251 494.604 759.37 498.023 776.226 498.023C787.516 498.023 797.137 496.592 805.088 493.73C813.039 490.708 819.161 486.494 823.454 481.088C827.748 475.522 829.895 469.002 829.895 461.529V461.29C829.895 452.385 827.191 445.229 821.785 439.823C816.378 434.416 806.598 429.963 792.446 426.465L753.089 416.924C737.505 413.107 724.545 408.178 714.209 402.135C704.032 395.933 696.399 388.38 691.31 379.475C686.222 370.57 683.677 360.154 683.677 348.228V347.989C683.677 333.678 687.494 321.036 695.127 310.064C702.919 299.091 713.652 290.504 727.328 284.303C741.162 278.101 756.985 275 774.795 275C792.923 275 808.666 278.26 822.023 284.78C835.54 291.14 846.115 299.886 853.747 311.018C861.539 321.99 865.912 334.393 866.867 348.228L867.105 351.329H827.509L827.271 349.659C825.681 337.574 820.354 327.874 811.29 320.559C802.385 313.244 790.22 309.586 774.795 309.586C764.777 309.586 756.11 311.097 748.795 314.119C741.481 317.14 735.835 321.433 731.86 326.999C728.043 332.406 726.135 338.766 726.135 346.081V346.32C726.135 351.885 727.407 356.974 729.952 361.586C732.655 366.038 736.869 369.934 742.594 373.273C748.318 376.613 755.713 379.396 764.777 381.622L804.134 391.163C829.259 397.206 846.91 405.554 857.087 416.208C867.264 426.704 872.353 440.777 872.353 458.428V458.666C872.353 473.137 868.139 485.938 859.711 497.069C851.442 508.2 839.992 516.946 825.363 523.307C810.892 529.509 794.434 532.61 775.987 532.61Z" fill="black"/>
<path d="M998.076 532.61C974.382 532.61 953.948 527.362 936.774 516.867C919.759 506.372 906.64 491.583 897.417 472.501C888.353 453.26 883.821 430.679 883.821 404.759V404.52C883.821 378.919 888.433 356.417 897.656 337.017C906.879 317.458 919.839 302.272 936.536 291.458C953.233 280.486 972.871 275 995.452 275C1018.03 275 1037.43 280.248 1053.65 290.743C1070.03 301.079 1082.59 315.629 1091.34 334.393C1100.09 353.158 1104.46 374.943 1104.46 399.75V415.016H904.573V382.576H1083.95L1062.96 412.63V396.649C1062.96 377.408 1060.01 361.506 1054.13 348.944C1048.41 336.381 1040.45 327.079 1030.28 321.036C1020.1 314.834 1008.41 311.733 995.213 311.733C982.015 311.733 970.168 314.993 959.673 321.513C949.178 327.874 940.909 337.415 934.866 350.136C928.823 362.699 925.802 378.203 925.802 396.649V412.63C925.802 430.122 928.744 445.07 934.627 457.474C940.67 469.877 949.178 479.418 960.15 486.097C971.122 492.617 984.082 495.877 999.03 495.877C1009.53 495.877 1018.91 494.286 1027.18 491.106C1035.45 487.926 1042.36 483.553 1047.93 477.987C1053.49 472.421 1057.47 466.061 1059.85 458.905L1060.57 456.758H1101.36L1100.88 459.143C1098.81 469.32 1094.84 478.862 1088.95 487.767C1083.23 496.672 1075.84 504.543 1066.77 511.381C1057.71 518.06 1047.37 523.307 1035.76 527.124C1024.15 530.781 1011.59 532.61 998.076 532.61Z" fill="black"/>
</svg>
